<?xml version="1.0" encoding="UTF-8"?>
<!DOCTYPE svg PUBLIC "-//W3C//DTD SVG 1.1//EN" "http://www.w3.org/Graphics/SVG/1.1/DTD/svg11.dtd">
<svg version="1.2" width="19.22mm" height="41.1mm" viewBox="2131 7474 1922 4110" preserveAspectRatio="xMidYMid" fill-rule="evenodd" stroke-width="28.222" stroke-linejoin="round" xmlns="http://www.w3.org/2000/svg" xmlns:ooo="http://xml.openoffice.org/svg/export" xmlns:xlink="http://www.w3.org/1999/xlink" xmlns:presentation="http://sun.com/xmlns/staroffice/presentation" xmlns:smil="http://www.w3.org/2001/SMIL20/" xmlns:anim="urn:oasis:names:tc:opendocument:xmlns:animation:1.0" xml:space="preserve">
 <defs class="ClipPathGroup">
  <clipPath id="presentation_clip_path" clipPathUnits="userSpaceOnUse">
   <rect x="2131" y="7474" width="1922" height="4110"/>
  </clipPath>
  <clipPath id="presentation_clip_path_shrink" clipPathUnits="userSpaceOnUse">
   <rect x="2132" y="7478" width="1919" height="4102"/>
  </clipPath>
 </defs>
 <defs class="TextShapeIndex">
  <g ooo:slide="id1" ooo:id-list="id3 id4 id5 id6 id7 id8 id9 id10 id11 id12 id13"/>
 </defs>
 <defs class="EmbeddedBulletChars">
  <g id="bullet-char-template-57356" transform="scale(0.00048828125,-0.00048828125)">
   <path d="M 580,1141 L 1163,571 580,0 -4,571 580,1141 Z"/>
  </g>
  <g id="bullet-char-template-57354" transform="scale(0.00048828125,-0.00048828125)">
   <path d="M 8,1128 L 1137,1128 1137,0 8,0 8,1128 Z"/>
  </g>
  <g id="bullet-char-template-10146" transform="scale(0.00048828125,-0.00048828125)">
   <path d="M 174,0 L 602,739 174,1481 1456,739 174,0 Z M 1358,739 L 309,1346 659,739 1358,739 Z"/>
  </g>
  <g id="bullet-char-template-10132" transform="scale(0.00048828125,-0.00048828125)">
   <path d="M 2015,739 L 1276,0 717,0 1260,543 174,543 174,936 1260,936 717,1481 1274,1481 2015,739 Z"/>
  </g>
  <g id="bullet-char-template-10007" transform="scale(0.00048828125,-0.00048828125)">
   <path d="M 0,-2 C -7,14 -16,27 -25,37 L 356,567 C 262,823 215,952 215,954 215,979 228,992 255,992 264,992 276,990 289,987 310,991 331,999 354,1012 L 381,999 492,748 772,1049 836,1024 860,1049 C 881,1039 901,1025 922,1006 886,937 835,863 770,784 769,783 710,716 594,584 L 774,223 C 774,196 753,168 711,139 L 727,119 C 717,90 699,76 672,76 641,76 570,178 457,381 L 164,-76 C 142,-110 111,-127 72,-127 30,-127 9,-110 8,-76 1,-67 -2,-52 -2,-32 -2,-23 -1,-13 0,-2 Z"/>
  </g>
  <g id="bullet-char-template-10004" transform="scale(0.00048828125,-0.00048828125)">
   <path d="M 285,-33 C 182,-33 111,30 74,156 52,228 41,333 41,471 41,549 55,616 82,672 116,743 169,778 240,778 293,778 328,747 346,684 L 369,508 C 377,444 397,411 428,410 L 1163,1116 C 1174,1127 1196,1133 1229,1133 1271,1133 1292,1118 1292,1087 L 1292,965 C 1292,929 1282,901 1262,881 L 442,47 C 390,-6 338,-33 285,-33 Z"/>
  </g>
  <g id="bullet-char-template-9679" transform="scale(0.00048828125,-0.00048828125)">
   <path d="M 813,0 C 632,0 489,54 383,161 276,268 223,411 223,592 223,773 276,916 383,1023 489,1130 632,1184 813,1184 992,1184 1136,1130 1245,1023 1353,916 1407,772 1407,592 1407,412 1353,268 1245,161 1136,54 992,0 813,0 Z"/>
  </g>
  <g id="bullet-char-template-8226" transform="scale(0.00048828125,-0.00048828125)">
   <path d="M 346,457 C 273,457 209,483 155,535 101,586 74,649 74,723 74,796 101,859 155,911 209,963 273,989 346,989 419,989 480,963 531,910 582,859 608,796 608,723 608,648 583,586 532,535 482,483 420,457 346,457 Z"/>
  </g>
  <g id="bullet-char-template-8211" transform="scale(0.00048828125,-0.00048828125)">
   <path d="M -4,459 L 1135,459 1135,606 -4,606 -4,459 Z"/>
  </g>
  <g id="bullet-char-template-61548" transform="scale(0.00048828125,-0.00048828125)">
   <path d="M 173,740 C 173,903 231,1043 346,1159 462,1274 601,1332 765,1332 928,1332 1067,1274 1183,1159 1299,1043 1357,903 1357,740 1357,577 1299,437 1183,322 1067,206 928,148 765,148 601,148 462,206 346,322 231,437 173,577 173,740 Z"/>
  </g>
 </defs>
 <defs class="TextEmbeddedBitmaps"/>
 <g class="SlideGroup">
  <g>
   <g id="container-id1">
    <g id="id1" class="Slide" clip-path="url(#presentation_clip_path)">
     <g class="Page">
      <g class="com.sun.star.drawing.PolyPolygonShape">
       <g id="id3">
        <rect class="BoundingBox" stroke="none" fill="none" x="2391" y="7480" width="1603" height="1804"/>
        <path fill="rgb(153,102,51)" stroke="none" d="M 3242,0 L 3164,7481 3088,7485 3015,7499 2946,7520 2880,7550 2818,7587 2760,7631 2708,7682 2660,7739 2617,7803 2580,7871 2549,7946 2525,8024 2507,8108 2496,8195 2392,8286 2492,8481 2592,8581 2592,8581 2592,8681 2592,8781 2660,8881 2708,8958 2760,9021 2818,9079 2880,9130 2946,9174 3015,9211 3088,9241 3164,9262 3242,9275 3320,9280 3396,9275 3469,9262 3538,9241 3604,9211 3666,9174 3724,9130 3776,9079 3824,9021 3867,8958 3904,8889 3935,8815 3959,8736 3977,8652 3988,8565 3992,8474 3988,8380 3977,8286 3959,8195 3935,8108 3904,8024 3867,7946 3824,7871 3776,7803 3724,7739 3666,7682 3604,7631 3538,7587 3469,7550 3396,7520 3320,7499 3242,7485 Z M 3992,7481 L 3992,7481 Z M 2491,7481 L 2491,9282 Z"/>
        <path fill="none" stroke="rgb(0,0,0)" d="M 3242,0 L 3164,7481 3088,7485 3015,7499 2946,7520 2880,7550 2818,7587 2760,7631 2708,7682 2660,7739 2617,7803 2580,7871 2549,7946 2525,8024 2507,8108 2496,8195 2392,8286 2492,8481 2592,8581 2592,8581 2592,8681 2592,8781 2660,8881 2708,8958 2760,9021 2818,9079 2880,9130 2946,9174 3015,9211 3088,9241 3164,9262 3242,9275 3320,9280 3396,9275 3469,9262 3538,9241 3604,9211 3666,9174 3724,9130 3776,9079 3824,9021 3867,8958 3904,8889 3935,8815 3959,8736 3977,8652 3988,8565 3992,8474 3988,8380 3977,8286 3959,8195 3935,8108 3904,8024 3867,7946 3824,7871 3776,7803 3724,7739 3666,7682 3604,7631 3538,7587 3469,7550 3396,7520 3320,7499 3242,7485 Z"/>
        <path fill="none" stroke="rgb(0,0,0)" d="M 3992,0 L 3992,7481 Z"/>
        <path fill="none" stroke="rgb(0,0,0)" d="M 2491,0 L 2491,9282 Z"/>
       </g>
      </g>
      <g class="com.sun.star.drawing.CustomShape">
       <g id="id4">
        <rect class="BoundingBox" stroke="none" fill="none" x="2790" y="8080" width="204" height="304"/>
        <path fill="rgb(25,51,0)" stroke="none" d="M 2893,0 C 2837,8081 2793,8081 2793,8146 2793,8231 2837,8316 2893,8381 2949,8381 2992,8381 2992,8316 2992,8231 2949,8146 2893,8081 Z M 2992,8081 L 2992,8081 Z M 2791,8081 L 2791,8382 Z"/>
        <path fill="none" stroke="rgb(0,0,0)" d="M 2893,0 C 2837,8081 2793,8081 2793,8146 2793,8231 2837,8316 2893,8381 2949,8381 2992,8381 2992,8316 2992,8231 2949,8146 2893,8081 Z"/>
        <path fill="none" stroke="rgb(0,0,0)" d="M 2992,0 L 2992,8081 Z"/>
        <path fill="none" stroke="rgb(0,0,0)" d="M 2791,0 L 2791,8382 Z"/>
       </g>
      </g>
      <g class="com.sun.star.drawing.OpenBezierShape">
       <g id="id5">
        <rect class="BoundingBox" stroke="none" fill="none" x="2542" y="8531" width="1001" height="328"/>
        <path fill="none" stroke="rgb(0,0,0)" stroke-width="100" stroke-linejoin="round" d="M 2592,0 C 2753,8781 2948,8816 3092,8816 3331,8781 3466,8722 3492,8616"/>
       </g>
      </g>
      <g class="com.sun.star.drawing.CustomShape">
       <g id="id6">
        <rect class="BoundingBox" stroke="none" fill="none" x="2690" y="9180" width="1104" height="1404"/>
        <path fill="rgb(153,0,0)" stroke="none" d="M 3609,0 C 3701,9181 3792,9181 3792,9272 L 3792,9364 C 3792,10398 3701,10489 3609,10581 L 2875,10581 C 2783,10581 2691,10581 2691,10489 L 2691,10398 C 2691,9364 2783,9272 2875,9181 L 3609,9181 Z M 3792,9181 L 3792,9181 Z M 2691,9181 L 2691,10582 Z"/>
        <path fill="none" stroke="rgb(52,101,164)" d="M 3609,0 C 3701,9181 3792,9181 3792,9272 L 3792,9364 C 3792,10398 3701,10489 3609,10581 L 2875,10581 C 2783,10581 2691,10581 2691,10489 L 2691,10398 C 2691,9364 2783,9272 2875,9181 L 3609,9181 Z"/>
        <path fill="none" stroke="rgb(52,101,164)" d="M 3792,0 L 3792,9181 Z"/>
        <path fill="none" stroke="rgb(52,101,164)" d="M 2691,0 L 2691,10582 Z"/>
       </g>
      </g>
      <g class="com.sun.star.drawing.CustomShape">
       <g id="id7">
        <rect class="BoundingBox" stroke="none" fill="none" x="2591" y="10378" width="729" height="1005"/>
        <path fill="rgb(52,101,164)" stroke="none" d="M 2833,0 L 2592,11313 2837,11245 3318,10379 3073,10515 2833,11381 Z"/>
        <path fill="none" stroke="rgb(0,0,0)" d="M 2833,0 L 2592,11313 2837,11245 3318,10379 3073,10515 2833,11381 Z"/>
       </g>
      </g>
      <g class="com.sun.star.drawing.CustomShape">
       <g id="id8">
        <rect class="BoundingBox" stroke="none" fill="none" x="3190" y="10386" width="705" height="999"/>
        <path fill="rgb(52,101,164)" stroke="none" d="M 3650,0 L 3408,11323 3191,11383 3676,10507 3893,10387 3650,11262 Z"/>
        <path fill="none" stroke="rgb(0,0,0)" d="M 3650,0 L 3408,11323 3191,11383 3676,10507 3893,10387 3650,11262 Z"/>
       </g>
      </g>
      <g class="com.sun.star.drawing.CustomShape">
       <g id="id9">
        <rect class="BoundingBox" stroke="none" fill="none" x="2304" y="9303" width="1186" height="1079"/>
        <path fill="rgb(153,0,0)" stroke="none" d="M 2438,0 L 2305,10217 3222,10055 3488,9304 2571,9629 2438,10380 Z"/>
        <path fill="none" stroke="rgb(0,0,0)" d="M 2438,0 L 2305,10217 3222,10055 3488,9304 2571,9629 2438,10380 Z"/>
       </g>
      </g>
      <g class="com.sun.star.drawing.CustomShape">
       <g id="id10">
        <rect class="BoundingBox" stroke="none" fill="none" x="2348" y="11169" width="731" height="405"/>
        <path fill="rgb(51,51,51)" stroke="none" d="M 3046,0 C 3062,11381 3072,11387 3066,11407 L 3022,11423 C 3017,11550 2996,11565 2980,11576 L 2382,11570 C 2366,11361 2355,11355 2361,11333 L 2405,11318 C 2410,11192 2432,11176 2448,11166 L 3046,11172 Z M 3077,11381 L 3077,11392 Z M 2349,11392 L 2349,11350 Z"/>
        <path fill="none" stroke="rgb(52,101,164)" d="M 3046,0 C 3062,11381 3072,11387 3066,11407 L 3022,11423 C 3017,11550 2996,11565 2980,11576 L 2382,11570 C 2366,11361 2355,11355 2361,11333 L 2405,11318 C 2410,11192 2432,11176 2448,11166 L 3046,11172 Z"/>
        <path fill="none" stroke="rgb(52,101,164)" d="M 3077,0 L 3077,11392 Z"/>
        <path fill="none" stroke="rgb(52,101,164)" d="M 2349,0 L 2349,11350 Z"/>
       </g>
      </g>
      <g class="com.sun.star.drawing.CustomShape">
       <g id="id11">
        <rect class="BoundingBox" stroke="none" fill="none" x="3198" y="11197" width="716" height="388"/>
        <path fill="rgb(51,51,51)" stroke="none" d="M 3834,0 C 3850,11207 3870,11203 3874,11214 L 3911,11230 C 3915,11359 3905,11374 3888,11395 L 3278,11400 C 3262,11573 3241,11577 3237,11566 L 3200,11550 C 3195,11421 3207,11405 3224,11385 L 3834,11380 Z M 3865,11207 L 3865,11198 Z M 3246,11198 L 3246,11583 Z"/>
        <path fill="none" stroke="rgb(52,101,164)" d="M 3834,0 C 3850,11207 3870,11203 3874,11214 L 3911,11230 C 3915,11359 3905,11374 3888,11395 L 3278,11400 C 3262,11573 3241,11577 3237,11566 L 3200,11550 C 3195,11421 3207,11405 3224,11385 L 3834,11380 Z"/>
        <path fill="none" stroke="rgb(52,101,164)" d="M 3865,0 L 3865,11198 Z"/>
        <path fill="none" stroke="rgb(52,101,164)" d="M 3246,0 L 3246,11583 Z"/>
       </g>
      </g>
      <g class="com.sun.star.drawing.PolyPolygonShape">
       <g id="id12">
        <rect class="BoundingBox" stroke="none" fill="none" x="2130" y="10072" width="439" height="335"/>
        <path fill="rgb(153,102,51)" stroke="none" d="M 2318,0 L 2481,10405 2567,10363 2356,10332 2204,10073 2169,10122 2211,10169 2148,10184 2131,10235 2159,10282 2188,10314 2238,10353 2278,10375 2278,10385 2278,10385 2318,10385 Z"/>
        <path fill="none" stroke="rgb(0,0,0)" d="M 2318,0 L 2481,10405 2567,10363 2356,10332 2204,10073 2169,10122 2211,10169 2148,10184 2131,10235 2159,10282 2188,10314 2238,10353 2278,10375 2278,10385 2278,10385 2318,10385 Z"/>
       </g>
      </g>
      <g class="com.sun.star.drawing.ClosedBezierShape">
       <g id="id13">
        <rect class="BoundingBox" stroke="none" fill="none" x="2595" y="7474" width="1459" height="1963"/>
        <path fill="rgb(28,28,28)" stroke="none" d="M 3801,0 C 3791,9436 4059,9175 4052,8621 4048,8360 3996,8216 3995,7918 3862,7774 3728,7674 3595,7574 3362,7474 3128,7474 2895,7474 2795,7474 2695,7574 2595,7674 2895,7774 3195,7807 3495,7841 3672,7874 3624,8245 3801,9065 Z"/>
       </g>
      </g>
     </g>
    </g>
   </g>
  </g>
 </g>
</svg>