<?xml version="1.0" encoding="UTF-8"?>
<!DOCTYPE svg PUBLIC "-//W3C//DTD SVG 1.1//EN" "http://www.w3.org/Graphics/SVG/1.1/DTD/svg11.dtd">
<svg version="1.2" width="19.41mm" height="40.09mm" viewBox="7223 7474 1941 4009" preserveAspectRatio="xMidYMid" fill-rule="evenodd" stroke-width="28.222" stroke-linejoin="round" xmlns="http://www.w3.org/2000/svg" xmlns:ooo="http://xml.openoffice.org/svg/export" xmlns:xlink="http://www.w3.org/1999/xlink" xmlns:presentation="http://sun.com/xmlns/staroffice/presentation" xmlns:smil="http://www.w3.org/2001/SMIL20/" xmlns:anim="urn:oasis:names:tc:opendocument:xmlns:animation:1.0" xml:space="preserve">
 <defs class="ClipPathGroup">
  <clipPath id="presentation_clip_path" clipPathUnits="userSpaceOnUse">
   <rect x="7223" y="7474" width="1941" height="4009"/>
  </clipPath>
  <clipPath id="presentation_clip_path_shrink" clipPathUnits="userSpaceOnUse">
   <rect x="7224" y="7478" width="1938" height="4001"/>
  </clipPath>
 </defs>
 <defs class="TextShapeIndex">
  <g ooo:slide="id1" ooo:id-list="id3 id4 id5 id6 id7 id8 id9 id10 id11 id12"/>
 </defs>
 <defs class="EmbeddedBulletChars">
  <g id="bullet-char-template-57356" transform="scale(0.00048828125,-0.00048828125)">
   <path d="M 580,1141 L 1163,571 580,0 -4,571 580,1141 Z"/>
  </g>
  <g id="bullet-char-template-57354" transform="scale(0.00048828125,-0.00048828125)">
   <path d="M 8,1128 L 1137,1128 1137,0 8,0 8,1128 Z"/>
  </g>
  <g id="bullet-char-template-10146" transform="scale(0.00048828125,-0.00048828125)">
   <path d="M 174,0 L 602,739 174,1481 1456,739 174,0 Z M 1358,739 L 309,1346 659,739 1358,739 Z"/>
  </g>
  <g id="bullet-char-template-10132" transform="scale(0.00048828125,-0.00048828125)">
   <path d="M 2015,739 L 1276,0 717,0 1260,543 174,543 174,936 1260,936 717,1481 1274,1481 2015,739 Z"/>
  </g>
  <g id="bullet-char-template-10007" transform="scale(0.00048828125,-0.00048828125)">
   <path d="M 0,-2 C -7,14 -16,27 -25,37 L 356,567 C 262,823 215,952 215,954 215,979 228,992 255,992 264,992 276,990 289,987 310,991 331,999 354,1012 L 381,999 492,748 772,1049 836,1024 860,1049 C 881,1039 901,1025 922,1006 886,937 835,863 770,784 769,783 710,716 594,584 L 774,223 C 774,196 753,168 711,139 L 727,119 C 717,90 699,76 672,76 641,76 570,178 457,381 L 164,-76 C 142,-110 111,-127 72,-127 30,-127 9,-110 8,-76 1,-67 -2,-52 -2,-32 -2,-23 -1,-13 0,-2 Z"/>
  </g>
  <g id="bullet-char-template-10004" transform="scale(0.00048828125,-0.00048828125)">
   <path d="M 285,-33 C 182,-33 111,30 74,156 52,228 41,333 41,471 41,549 55,616 82,672 116,743 169,778 240,778 293,778 328,747 346,684 L 369,508 C 377,444 397,411 428,410 L 1163,1116 C 1174,1127 1196,1133 1229,1133 1271,1133 1292,1118 1292,1087 L 1292,965 C 1292,929 1282,901 1262,881 L 442,47 C 390,-6 338,-33 285,-33 Z"/>
  </g>
  <g id="bullet-char-template-9679" transform="scale(0.00048828125,-0.00048828125)">
   <path d="M 813,0 C 632,0 489,54 383,161 276,268 223,411 223,592 223,773 276,916 383,1023 489,1130 632,1184 813,1184 992,1184 1136,1130 1245,1023 1353,916 1407,772 1407,592 1407,412 1353,268 1245,161 1136,54 992,0 813,0 Z"/>
  </g>
  <g id="bullet-char-template-8226" transform="scale(0.00048828125,-0.00048828125)">
   <path d="M 346,457 C 273,457 209,483 155,535 101,586 74,649 74,723 74,796 101,859 155,911 209,963 273,989 346,989 419,989 480,963 531,910 582,859 608,796 608,723 608,648 583,586 532,535 482,483 420,457 346,457 Z"/>
  </g>
  <g id="bullet-char-template-8211" transform="scale(0.00048828125,-0.00048828125)">
   <path d="M -4,459 L 1135,459 1135,606 -4,606 -4,459 Z"/>
  </g>
  <g id="bullet-char-template-61548" transform="scale(0.00048828125,-0.00048828125)">
   <path d="M 173,740 C 173,903 231,1043 346,1159 462,1274 601,1332 765,1332 928,1332 1067,1274 1183,1159 1299,1043 1357,903 1357,740 1357,577 1299,437 1183,322 1067,206 928,148 765,148 601,148 462,206 346,322 231,437 173,577 173,740 Z"/>
  </g>
 </defs>
 <defs class="TextEmbeddedBitmaps"/>
 <g class="SlideGroup">
  <g>
   <g id="container-id1">
    <g id="id1" class="Slide" clip-path="url(#presentation_clip_path)">
     <g class="Page">
      <g class="com.sun.star.drawing.PolyPolygonShape">
       <g id="id3">
        <rect class="BoundingBox" stroke="none" fill="none" x="7222" y="10074" width="439" height="335"/>
        <path fill="rgb(153,102,51)" stroke="none" d="M 7410,10407 L 7573,10365 7659,10334 7448,10075 7296,10124 7261,10171 7303,10186 7240,10237 7223,10284 7251,10316 7280,10355 7330,10377 7370,10387 7370,10387 7370,10387 7410,10407 Z"/>
        <path fill="none" stroke="rgb(0,0,0)" d="M 7410,10407 L 7573,10365 7659,10334 7448,10075 7296,10124 7261,10171 7303,10186 7240,10237 7223,10284 7251,10316 7280,10355 7330,10377 7370,10387 7370,10387 7370,10387 7410,10407 Z"/>
       </g>
      </g>
      <g class="com.sun.star.drawing.PolyPolygonShape">
       <g id="id4">
        <rect class="BoundingBox" stroke="none" fill="none" x="7483" y="7482" width="1603" height="1804"/>
        <path fill="rgb(153,102,51)" stroke="none" d="M 8334,7483 L 8256,7487 8180,7501 8107,7522 8038,7552 7972,7589 7910,7633 7852,7684 7800,7741 7752,7805 7709,7873 7672,7948 7641,8026 7617,8110 7599,8197 7588,8288 7484,8483 7584,8583 7684,8583 7684,8683 7684,8783 7684,8883 7752,8960 7800,9023 7852,9081 7910,9132 7972,9176 8038,9213 8107,9243 8180,9264 8256,9277 8334,9282 8412,9277 8488,9264 8561,9243 8630,9213 8696,9176 8758,9132 8816,9081 8868,9023 8916,8960 8959,8891 8996,8817 9027,8738 9051,8654 9069,8567 9080,8476 9084,8382 9080,8288 9069,8197 9051,8110 9027,8026 8996,7948 8959,7873 8916,7805 8868,7741 8816,7684 8758,7633 8696,7589 8630,7552 8561,7522 8488,7501 8412,7487 8334,7483 Z M 9084,7483 L 9084,7483 Z M 7583,9284 L 7583,9284 Z"/>
        <path fill="none" stroke="rgb(0,0,0)" d="M 8334,7483 L 8256,7487 8180,7501 8107,7522 8038,7552 7972,7589 7910,7633 7852,7684 7800,7741 7752,7805 7709,7873 7672,7948 7641,8026 7617,8110 7599,8197 7588,8288 7484,8483 7584,8583 7684,8583 7684,8683 7684,8783 7684,8883 7752,8960 7800,9023 7852,9081 7910,9132 7972,9176 8038,9213 8107,9243 8180,9264 8256,9277 8334,9282 8412,9277 8488,9264 8561,9243 8630,9213 8696,9176 8758,9132 8816,9081 8868,9023 8916,8960 8959,8891 8996,8817 9027,8738 9051,8654 9069,8567 9080,8476 9084,8382 9080,8288 9069,8197 9051,8110 9027,8026 8996,7948 8959,7873 8916,7805 8868,7741 8816,7684 8758,7633 8696,7589 8630,7552 8561,7522 8488,7501 8412,7487 8334,7483 Z"/>
        <path fill="none" stroke="rgb(0,0,0)" d="M 9084,7483 L 9084,7483 Z"/>
        <path fill="none" stroke="rgb(0,0,0)" d="M 7583,9284 L 7583,9284 Z"/>
       </g>
      </g>
      <g class="com.sun.star.drawing.CustomShape">
       <g id="id5">
        <rect class="BoundingBox" stroke="none" fill="none" x="7882" y="8082" width="204" height="304"/>
        <path fill="rgb(25,51,0)" stroke="none" d="M 7985,8083 C 7929,8083 7885,8148 7885,8233 7885,8318 7929,8383 7985,8383 8041,8383 8084,8318 8084,8233 8084,8148 8041,8083 7985,8083 Z M 8084,8083 L 8084,8083 Z M 7883,8384 L 7883,8384 Z"/>
        <path fill="none" stroke="rgb(0,0,0)" d="M 7985,8083 C 7929,8083 7885,8148 7885,8233 7885,8318 7929,8383 7985,8383 8041,8383 8084,8318 8084,8233 8084,8148 8041,8083 7985,8083 Z"/>
        <path fill="none" stroke="rgb(0,0,0)" d="M 8084,8083 L 8084,8083 Z"/>
        <path fill="none" stroke="rgb(0,0,0)" d="M 7883,8384 L 7883,8384 Z"/>
       </g>
      </g>
      <g class="com.sun.star.drawing.OpenBezierShape">
       <g id="id6">
        <rect class="BoundingBox" stroke="none" fill="none" x="7634" y="8533" width="1001" height="328"/>
        <path fill="none" stroke="rgb(0,0,0)" stroke-width="100" stroke-linejoin="round" d="M 7684,8783 C 7845,8818 8040,8818 8184,8783 8423,8724 8558,8618 8584,8583"/>
       </g>
      </g>
      <g class="com.sun.star.drawing.CustomShape">
       <g id="id7">
        <rect class="BoundingBox" stroke="none" fill="none" x="7782" y="9182" width="1104" height="1404"/>
        <path fill="rgb(153,0,0)" stroke="none" d="M 8701,9183 C 8793,9183 8884,9274 8884,9366 L 8884,10400 C 8884,10491 8793,10583 8701,10583 L 7967,10583 C 7875,10583 7783,10491 7783,10400 L 7783,9366 C 7783,9274 7875,9183 7967,9183 L 8701,9183 Z M 8884,9183 L 8884,9183 Z M 7783,10584 L 7783,10584 Z"/>
        <path fill="none" stroke="rgb(52,101,164)" d="M 8701,9183 C 8793,9183 8884,9274 8884,9366 L 8884,10400 C 8884,10491 8793,10583 8701,10583 L 7967,10583 C 7875,10583 7783,10491 7783,10400 L 7783,9366 C 7783,9274 7875,9183 7967,9183 L 8701,9183 Z"/>
        <path fill="none" stroke="rgb(52,101,164)" d="M 8884,9183 L 8884,9183 Z"/>
        <path fill="none" stroke="rgb(52,101,164)" d="M 7783,10584 L 7783,10584 Z"/>
       </g>
      </g>
      <g class="com.sun.star.drawing.CustomShape">
       <g id="id8">
        <rect class="BoundingBox" stroke="none" fill="none" x="7396" y="9305" width="1186" height="1079"/>
        <path fill="rgb(153,0,0)" stroke="none" d="M 7530,10219 L 7397,10057 8314,9306 8580,9631 7663,10382 7530,10219 Z"/>
        <path fill="none" stroke="rgb(0,0,0)" d="M 7530,10219 L 7397,10057 8314,9306 8580,9631 7663,10382 7530,10219 Z"/>
       </g>
      </g>
      <g class="com.sun.star.drawing.CustomShape">
       <g id="id9">
        <rect class="BoundingBox" stroke="none" fill="none" x="7964" y="10425" width="547" height="927"/>
        <path fill="rgb(52,101,164)" stroke="none" d="M 8215,11337 L 7965,11325 8010,10426 8509,10451 8464,11350 8215,11337 Z"/>
        <path fill="none" stroke="rgb(0,0,0)" d="M 8215,11337 L 7965,11325 8010,10426 8509,10451 8464,11350 8215,11337 Z"/>
       </g>
      </g>
      <g class="com.sun.star.drawing.CustomShape">
       <g id="id10">
        <rect class="BoundingBox" stroke="none" fill="none" x="7739" y="11272" width="706" height="213"/>
        <path fill="rgb(51,51,51)" stroke="none" d="M 8410,11283 C 8427,11283 8443,11299 8443,11316 L 8441,11450 C 8441,11466 8424,11483 8407,11483 L 7774,11473 C 7757,11473 7740,11456 7740,11440 L 7742,11306 C 7742,11289 7760,11273 7777,11273 L 8410,11283 Z M 8443,11283 L 8443,11283 Z M 7740,11474 L 7740,11474 Z"/>
        <path fill="none" stroke="rgb(52,101,164)" d="M 8410,11283 C 8427,11283 8443,11299 8443,11316 L 8441,11450 C 8441,11466 8424,11483 8407,11483 L 7774,11473 C 7757,11473 7740,11456 7740,11440 L 7742,11306 C 7742,11289 7760,11273 7777,11273 L 8410,11283 Z"/>
        <path fill="none" stroke="rgb(52,101,164)" d="M 8443,11283 L 8443,11283 Z"/>
        <path fill="none" stroke="rgb(52,101,164)" d="M 7740,11474 L 7740,11474 Z"/>
       </g>
      </g>
      <g class="com.sun.star.drawing.CustomShape">
       <g id="id11">
        <rect class="BoundingBox" stroke="none" fill="none" x="8145" y="10315" width="997" height="988"/>
        <path fill="rgb(52,101,164)" stroke="none" d="M 8966,11122 L 8792,11301 8146,10675 8494,10316 9140,10942 8966,11122 Z"/>
        <path fill="none" stroke="rgb(0,0,0)" d="M 8966,11122 L 8792,11301 8146,10675 8494,10316 9140,10942 8966,11122 Z"/>
       </g>
      </g>
      <g class="com.sun.star.drawing.ClosedBezierShape">
       <g id="id12">
        <rect class="BoundingBox" stroke="none" fill="none" x="7706" y="7474" width="1459" height="1963"/>
        <path fill="rgb(28,28,28)" stroke="none" d="M 8912,9436 C 8902,9175 9170,8621 9163,8360 9159,8216 9107,7918 9106,7774 8973,7674 8839,7574 8706,7474 8473,7474 8239,7474 8006,7474 7906,7574 7806,7674 7706,7774 8006,7807 8306,7841 8606,7874 8783,8245 8735,9065 8912,9436 Z"/>
       </g>
      </g>
     </g>
    </g>
   </g>
  </g>
 </g>
</svg>