<?xml version="1.0" encoding="UTF-8"?>
<!DOCTYPE svg PUBLIC "-//W3C//DTD SVG 1.1//EN" "http://www.w3.org/Graphics/SVG/1.1/DTD/svg11.dtd">
<svg version="1.2" width="20.37mm" height="40.56mm" viewBox="16391 6811 2037 4056" preserveAspectRatio="xMidYMid" fill-rule="evenodd" stroke-width="28.222" stroke-linejoin="round" xmlns="http://www.w3.org/2000/svg" xmlns:ooo="http://xml.openoffice.org/svg/export" xmlns:xlink="http://www.w3.org/1999/xlink" xmlns:presentation="http://sun.com/xmlns/staroffice/presentation" xmlns:smil="http://www.w3.org/2001/SMIL20/" xmlns:anim="urn:oasis:names:tc:opendocument:xmlns:animation:1.0" xml:space="preserve">
 <defs class="ClipPathGroup">
  <clipPath id="presentation_clip_path" clipPathUnits="userSpaceOnUse">
   <rect x="16391" y="6811" width="2037" height="4056"/>
  </clipPath>
  <clipPath id="presentation_clip_path_shrink" clipPathUnits="userSpaceOnUse">
   <rect x="16393" y="6815" width="2033" height="4048"/>
  </clipPath>
 </defs>
 <defs class="TextShapeIndex">
  <g ooo:slide="id1" ooo:id-list="id3 id4 id5 id6 id7 id8 id9 id10 id11 id12 id13"/>
 </defs>
 <defs class="EmbeddedBulletChars">
  <g id="bullet-char-template-57356" transform="scale(0.00048828125,-0.00048828125)">
   <path d="M 580,1141 L 1163,571 580,0 -4,571 580,1141 Z"/>
  </g>
  <g id="bullet-char-template-57354" transform="scale(0.00048828125,-0.00048828125)">
   <path d="M 8,1128 L 1137,1128 1137,0 8,0 8,1128 Z"/>
  </g>
  <g id="bullet-char-template-10146" transform="scale(0.00048828125,-0.00048828125)">
   <path d="M 174,0 L 602,739 174,1481 1456,739 174,0 Z M 1358,739 L 309,1346 659,739 1358,739 Z"/>
  </g>
  <g id="bullet-char-template-10132" transform="scale(0.00048828125,-0.00048828125)">
   <path d="M 2015,739 L 1276,0 717,0 1260,543 174,543 174,936 1260,936 717,1481 1274,1481 2015,739 Z"/>
  </g>
  <g id="bullet-char-template-10007" transform="scale(0.00048828125,-0.00048828125)">
   <path d="M 0,-2 C -7,14 -16,27 -25,37 L 356,567 C 262,823 215,952 215,954 215,979 228,992 255,992 264,992 276,990 289,987 310,991 331,999 354,1012 L 381,999 492,748 772,1049 836,1024 860,1049 C 881,1039 901,1025 922,1006 886,937 835,863 770,784 769,783 710,716 594,584 L 774,223 C 774,196 753,168 711,139 L 727,119 C 717,90 699,76 672,76 641,76 570,178 457,381 L 164,-76 C 142,-110 111,-127 72,-127 30,-127 9,-110 8,-76 1,-67 -2,-52 -2,-32 -2,-23 -1,-13 0,-2 Z"/>
  </g>
  <g id="bullet-char-template-10004" transform="scale(0.00048828125,-0.00048828125)">
   <path d="M 285,-33 C 182,-33 111,30 74,156 52,228 41,333 41,471 41,549 55,616 82,672 116,743 169,778 240,778 293,778 328,747 346,684 L 369,508 C 377,444 397,411 428,410 L 1163,1116 C 1174,1127 1196,1133 1229,1133 1271,1133 1292,1118 1292,1087 L 1292,965 C 1292,929 1282,901 1262,881 L 442,47 C 390,-6 338,-33 285,-33 Z"/>
  </g>
  <g id="bullet-char-template-9679" transform="scale(0.00048828125,-0.00048828125)">
   <path d="M 813,0 C 632,0 489,54 383,161 276,268 223,411 223,592 223,773 276,916 383,1023 489,1130 632,1184 813,1184 992,1184 1136,1130 1245,1023 1353,916 1407,772 1407,592 1407,412 1353,268 1245,161 1136,54 992,0 813,0 Z"/>
  </g>
  <g id="bullet-char-template-8226" transform="scale(0.00048828125,-0.00048828125)">
   <path d="M 346,457 C 273,457 209,483 155,535 101,586 74,649 74,723 74,796 101,859 155,911 209,963 273,989 346,989 419,989 480,963 531,910 582,859 608,796 608,723 608,648 583,586 532,535 482,483 420,457 346,457 Z"/>
  </g>
  <g id="bullet-char-template-8211" transform="scale(0.00048828125,-0.00048828125)">
   <path d="M -4,459 L 1135,459 1135,606 -4,606 -4,459 Z"/>
  </g>
  <g id="bullet-char-template-61548" transform="scale(0.00048828125,-0.00048828125)">
   <path d="M 173,740 C 173,903 231,1043 346,1159 462,1274 601,1332 765,1332 928,1332 1067,1274 1183,1159 1299,1043 1357,903 1357,740 1357,577 1299,437 1183,322 1067,206 928,148 765,148 601,148 462,206 346,322 231,437 173,577 173,740 Z"/>
  </g>
 </defs>
 <defs class="TextEmbeddedBitmaps"/>
 <g class="SlideGroup">
  <g>
   <g id="container-id1">
    <g id="id1" class="Slide" clip-path="url(#presentation_clip_path)">
     <g class="Page">
      <g class="com.sun.star.drawing.CustomShape">
       <g id="id3">
        <rect class="BoundingBox" stroke="none" fill="none" x="16654" y="6815" width="1549" height="1814"/>
        <path fill="rgb(255,255,204)" stroke="none" d="M 17427,0 C 17865,6816 18199,6816 18199,7208 18199,7721 17865,8234 17427,8626 16989,8626 16655,8626 16655,8234 16655,7721 16989,7208 17427,6816 Z M 16655,6816 L 16655,6816 Z M 18201,6816 L 18201,8627 Z"/>
        <path fill="none" stroke="rgb(0,0,0)" d="M 17427,0 C 17865,6816 18199,6816 18199,7208 18199,7721 17865,8234 17427,8626 16989,8626 16655,8626 16655,8234 16655,7721 16989,7208 17427,6816 Z"/>
        <path fill="none" stroke="rgb(0,0,0)" d="M 16655,0 L 16655,6816 Z"/>
        <path fill="none" stroke="rgb(0,0,0)" d="M 18201,0 L 18201,8627 Z"/>
       </g>
      </g>
      <g class="com.sun.star.drawing.PolyPolygonShape">
       <g id="id4">
        <rect class="BoundingBox" stroke="none" fill="none" x="16634" y="6810" width="1598" height="1406"/>
        <path fill="rgb(102,51,0)" stroke="none" d="M 16675,0 L 16721,7381 17121,7120 17721,6820 18040,6811 18162,7042 18230,7305 18208,7719 16714,8202 16635,8214 16675,7699 Z"/>
        <path fill="none" stroke="rgb(52,101,164)" d="M 16675,0 L 16721,7381 17121,7120 17721,6820 18040,6811 18162,7042 18230,7305 18208,7719 16714,8202 16635,8214 16675,7699 Z"/>
       </g>
      </g>
      <g class="com.sun.star.drawing.CustomShape">
       <g id="id5">
        <rect class="BoundingBox" stroke="none" fill="none" x="16771" y="8519" width="1274" height="1404"/>
        <path fill="rgb(0,120,38)" stroke="none" d="M 16983,0 C 16877,8520 16772,8520 16772,8625 L 16772,8731 C 16772,9709 16877,9814 16983,9920 L 17831,9920 C 17937,9920 18043,9920 18043,9814 L 18043,9709 C 18043,8731 17937,8625 17831,8520 L 16983,8520 Z M 16772,8520 L 16772,8520 Z M 18043,8520 L 18043,9921 Z"/>
        <path fill="none" stroke="rgb(52,101,164)" d="M 16983,0 C 16877,8520 16772,8520 16772,8625 L 16772,8731 C 16772,9709 16877,9814 16983,9920 L 17831,9920 C 17937,9920 18043,9920 18043,9814 L 18043,9709 C 18043,8731 17937,8625 17831,8520 L 16983,8520 Z"/>
        <path fill="none" stroke="rgb(52,101,164)" d="M 16772,0 L 16772,8520 Z"/>
        <path fill="none" stroke="rgb(52,101,164)" d="M 18043,0 L 18043,9921 Z"/>
       </g>
      </g>
      <g class="com.sun.star.drawing.CustomShape">
       <g id="id6">
        <rect class="BoundingBox" stroke="none" fill="none" x="17463" y="9779" width="535" height="687"/>
        <path fill="rgb(52,101,164)" stroke="none" d="M 17746,0 L 17496,10452 17464,10464 17963,9805 17996,9780 17746,10440 Z"/>
        <path fill="none" stroke="rgb(0,0,0)" d="M 17746,0 L 17496,10452 17464,10464 17963,9805 17996,9780 17746,10440 Z"/>
       </g>
      </g>
      <g class="com.sun.star.drawing.CustomShape">
       <g id="id7">
        <rect class="BoundingBox" stroke="none" fill="none" x="17510" y="10431" width="487" height="209"/>
        <path fill="rgb(51,51,51)" stroke="none" d="M 17544,0 C 17527,10438 17511,10438 17511,10455 L 17513,10472 C 17513,10606 17530,10622 17547,10638 L 17961,10638 C 17978,10632 17995,10632 17995,10614 L 17993,10598 C 17993,10464 17975,10447 17958,10432 L 17544,10432 Z M 17511,10438 L 17511,10439 Z M 17995,10439 L 17995,10632 Z"/>
        <path fill="none" stroke="rgb(52,101,164)" d="M 17544,0 C 17527,10438 17511,10438 17511,10455 L 17513,10472 C 17513,10606 17530,10622 17547,10638 L 17961,10638 C 17978,10632 17995,10632 17995,10614 L 17993,10598 C 17993,10464 17975,10447 17958,10432 L 17544,10432 Z"/>
        <path fill="none" stroke="rgb(52,101,164)" d="M 17511,0 L 17511,10439 Z"/>
        <path fill="none" stroke="rgb(52,101,164)" d="M 17995,0 L 17995,10632 Z"/>
       </g>
      </g>
      <g class="Group">
       <g class="com.sun.star.drawing.PolyPolygonShape">
        <g id="id8">
         <rect class="BoundingBox" stroke="none" fill="none" x="16404" y="8547" width="525" height="1109"/>
         <path fill="rgb(0,120,38)" stroke="none" d="M 16405,0 L 16601,9599 16744,8697 16927,8555 16690,8548 16405,9654 Z"/>
         <path fill="none" stroke="rgb(0,0,0)" d="M 16405,0 L 16601,9599 16744,8697 16927,8555 16690,8548 16405,9654 Z"/>
        </g>
       </g>
       <g class="com.sun.star.drawing.PolyPolygonShape">
        <g id="id9">
         <rect class="BoundingBox" stroke="none" fill="none" x="16390" y="9524" width="326" height="376"/>
         <path fill="rgb(255,255,204)" stroke="none" d="M 16411,0 L 16391,9780 16411,9654 16694,9525 16714,9605 16687,9764 16655,9815 16636,9784 16600,9863 16560,9898 16512,9886 16471,9876 16445,9840 16445,9808 16445,9808 16411,9808 Z"/>
         <path fill="none" stroke="rgb(0,0,0)" d="M 16411,0 L 16391,9780 16411,9654 16694,9525 16714,9605 16687,9764 16655,9815 16636,9784 16600,9863 16560,9898 16512,9886 16471,9876 16445,9840 16445,9808 16445,9808 16411,9808 Z"/>
        </g>
       </g>
      </g>
      <g class="com.sun.star.drawing.CustomShape">
       <g id="id10">
        <rect class="BoundingBox" stroke="none" fill="none" x="16830" y="9770" width="551" height="929"/>
        <path fill="rgb(52,101,164)" stroke="none" d="M 17081,0 L 16831,10683 16880,10670 17379,9771 17330,9798 17081,10697 Z"/>
        <path fill="none" stroke="rgb(0,0,0)" d="M 17081,0 L 16831,10683 16880,10670 17379,9771 17330,9798 17081,10697 Z"/>
       </g>
      </g>
      <g class="com.sun.star.drawing.CustomShape">
       <g id="id11">
        <rect class="BoundingBox" stroke="none" fill="none" x="16803" y="10618" width="549" height="250"/>
        <path fill="rgb(51,51,51)" stroke="none" d="M 16852,0 C 16835,10622 16817,10620 16816,10635 L 16804,10652 C 16803,10785 16817,10801 16834,10819 L 17301,10821 C 17318,10862 17337,10864 17338,10848 L 17350,10832 C 17351,10699 17336,10682 17319,10665 L 16852,10663 Z M 16819,10622 L 16819,10619 Z M 17335,10619 L 17335,10866 Z"/>
        <path fill="none" stroke="rgb(52,101,164)" d="M 16852,0 C 16835,10622 16817,10620 16816,10635 L 16804,10652 C 16803,10785 16817,10801 16834,10819 L 17301,10821 C 17318,10862 17337,10864 17338,10848 L 17350,10832 C 17351,10699 17336,10682 17319,10665 L 16852,10663 Z"/>
        <path fill="none" stroke="rgb(52,101,164)" d="M 16819,0 L 16819,10619 Z"/>
        <path fill="none" stroke="rgb(52,101,164)" d="M 17335,0 L 17335,10866 Z"/>
       </g>
      </g>
      <g class="Group">
       <g class="com.sun.star.drawing.PolyPolygonShape">
        <g id="id12">
         <rect class="BoundingBox" stroke="none" fill="none" x="17890" y="8547" width="525" height="1109"/>
         <path fill="rgb(0,120,38)" stroke="none" d="M 18413,0 L 18217,9599 18074,8697 17891,8555 18128,8548 18413,9654 Z"/>
         <path fill="none" stroke="rgb(0,0,0)" d="M 18413,0 L 18217,9599 18074,8697 17891,8555 18128,8548 18413,9654 Z"/>
        </g>
       </g>
       <g class="com.sun.star.drawing.PolyPolygonShape">
        <g id="id13">
         <rect class="BoundingBox" stroke="none" fill="none" x="18103" y="9524" width="326" height="376"/>
         <path fill="rgb(255,255,204)" stroke="none" d="M 18407,0 L 18427,9780 18407,9654 18124,9525 18104,9605 18131,9764 18163,9815 18181,9784 18218,9862 18258,9898 18306,9886 18347,9876 18373,9840 18373,9808 18373,9808 18407,9808 Z"/>
         <path fill="none" stroke="rgb(0,0,0)" d="M 18407,0 L 18427,9780 18407,9654 18124,9525 18104,9605 18131,9764 18163,9815 18181,9784 18218,9862 18258,9898 18306,9886 18347,9876 18373,9840 18373,9808 18373,9808 18407,9808 Z"/>
        </g>
       </g>
      </g>
     </g>
    </g>
   </g>
  </g>
 </g>
</svg>