<?xml version="1.0" encoding="UTF-8"?>
<!DOCTYPE svg PUBLIC "-//W3C//DTD SVG 1.1//EN" "http://www.w3.org/Graphics/SVG/1.1/DTD/svg11.dtd">
<svg version="1.2" width="19.5mm" height="40.03mm" viewBox="9753 1980 1950 4003" preserveAspectRatio="xMidYMid" fill-rule="evenodd" stroke-width="28.222" stroke-linejoin="round" xmlns="http://www.w3.org/2000/svg" xmlns:ooo="http://xml.openoffice.org/svg/export" xmlns:xlink="http://www.w3.org/1999/xlink" xmlns:presentation="http://sun.com/xmlns/staroffice/presentation" xmlns:smil="http://www.w3.org/2001/SMIL20/" xmlns:anim="urn:oasis:names:tc:opendocument:xmlns:animation:1.0" xml:space="preserve">
 <defs class="ClipPathGroup">
  <clipPath id="presentation_clip_path" clipPathUnits="userSpaceOnUse">
   <rect x="9753" y="1980" width="1950" height="4003"/>
  </clipPath>
  <clipPath id="presentation_clip_path_shrink" clipPathUnits="userSpaceOnUse">
   <rect x="9754" y="1984" width="1947" height="3995"/>
  </clipPath>
 </defs>
 <defs class="TextShapeIndex">
  <g ooo:slide="id1" ooo:id-list="id3 id4 id5 id6 id7 id8 id9 id10 id11 id12 id13"/>
 </defs>
 <defs class="EmbeddedBulletChars">
  <g id="bullet-char-template(57356)" transform="scale(0.00048828125,-0.00048828125)">
   <path d="M 580,1141 L 1163,571 580,0 -4,571 580,1141 Z"/>
  </g>
  <g id="bullet-char-template(57354)" transform="scale(0.00048828125,-0.00048828125)">
   <path d="M 8,1128 L 1137,1128 1137,0 8,0 8,1128 Z"/>
  </g>
  <g id="bullet-char-template(10146)" transform="scale(0.00048828125,-0.00048828125)">
   <path d="M 174,0 L 602,739 174,1481 1456,739 174,0 Z M 1358,739 L 309,1346 659,739 1358,739 Z"/>
  </g>
  <g id="bullet-char-template(10132)" transform="scale(0.00048828125,-0.00048828125)">
   <path d="M 2015,739 L 1276,0 717,0 1260,543 174,543 174,936 1260,936 717,1481 1274,1481 2015,739 Z"/>
  </g>
  <g id="bullet-char-template(10007)" transform="scale(0.00048828125,-0.00048828125)">
   <path d="M 0,-2 C -7,14 -16,27 -25,37 L 356,567 C 262,823 215,952 215,954 215,979 228,992 255,992 264,992 276,990 289,987 310,991 331,999 354,1012 L 381,999 492,748 772,1049 836,1024 860,1049 C 881,1039 901,1025 922,1006 886,937 835,863 770,784 769,783 710,716 594,584 L 774,223 C 774,196 753,168 711,139 L 727,119 C 717,90 699,76 672,76 641,76 570,178 457,381 L 164,-76 C 142,-110 111,-127 72,-127 30,-127 9,-110 8,-76 1,-67 -2,-52 -2,-32 -2,-23 -1,-13 0,-2 Z"/>
  </g>
  <g id="bullet-char-template(10004)" transform="scale(0.00048828125,-0.00048828125)">
   <path d="M 285,-33 C 182,-33 111,30 74,156 52,228 41,333 41,471 41,549 55,616 82,672 116,743 169,778 240,778 293,778 328,747 346,684 L 369,508 C 377,444 397,411 428,410 L 1163,1116 C 1174,1127 1196,1133 1229,1133 1271,1133 1292,1118 1292,1087 L 1292,965 C 1292,929 1282,901 1262,881 L 442,47 C 390,-6 338,-33 285,-33 Z"/>
  </g>
  <g id="bullet-char-template(9679)" transform="scale(0.00048828125,-0.00048828125)">
   <path d="M 813,0 C 632,0 489,54 383,161 276,268 223,411 223,592 223,773 276,916 383,1023 489,1130 632,1184 813,1184 992,1184 1136,1130 1245,1023 1353,916 1407,772 1407,592 1407,412 1353,268 1245,161 1136,54 992,0 813,0 Z"/>
  </g>
  <g id="bullet-char-template(8226)" transform="scale(0.00048828125,-0.00048828125)">
   <path d="M 346,457 C 273,457 209,483 155,535 101,586 74,649 74,723 74,796 101,859 155,911 209,963 273,989 346,989 419,989 480,963 531,910 582,859 608,796 608,723 608,648 583,586 532,535 482,483 420,457 346,457 Z"/>
  </g>
  <g id="bullet-char-template(8211)" transform="scale(0.00048828125,-0.00048828125)">
   <path d="M -4,459 L 1135,459 1135,606 -4,606 -4,459 Z"/>
  </g>
  <g id="bullet-char-template(61548)" transform="scale(0.00048828125,-0.00048828125)">
   <path d="M 173,740 C 173,903 231,1043 346,1159 462,1274 601,1332 765,1332 928,1332 1067,1274 1183,1159 1299,1043 1357,903 1357,740 1357,577 1299,437 1183,322 1067,206 928,148 765,148 601,148 462,206 346,322 231,437 173,577 173,740 Z"/>
  </g>
 </defs>
 <defs class="TextEmbeddedBitmaps"/>
 <g class="SlideGroup">
  <g>
   <g id="container-id1">
    <g id="id1" class="Slide" clip-path="url(#presentation_clip_path)">
     <g class="Page">
      <g class="com.sun.star.drawing.PolyPolygonShape">
       <g id="id3">
        <rect class="BoundingBox" stroke="none" fill="none" x="9840" y="1982" width="1603" height="1804"/>
        <path fill="rgb(153,102,51)" stroke="none" d="M 10591,1983 L 10669,1987 10745,2001 10818,2022 10887,2052 10953,2089 11015,2133 11073,2184 11125,2241 11173,2305 11216,2373 11253,2448 11284,2526 11308,2610 11326,2697 11337,2788 11441,2983 11341,3083 11241,3083 11241,3183 11241,3283 11241,3383 11173,3460 11125,3523 11073,3581 11015,3632 10953,3676 10887,3713 10818,3743 10745,3764 10669,3777 10591,3782 10513,3777 10437,3764 10364,3743 10295,3713 10229,3676 10167,3632 10109,3581 10057,3523 10009,3460 9966,3391 9929,3317 9898,3238 9874,3154 9856,3067 9845,2976 9841,2882 9845,2788 9856,2697 9874,2610 9898,2526 9929,2448 9966,2373 10009,2305 10057,2241 10109,2184 10167,2133 10229,2089 10295,2052 10364,2022 10437,2001 10513,1987 10591,1983 Z M 9841,1983 L 9841,1983 Z M 11342,3784 L 11342,3784 Z"/>
        <path fill="none" stroke="rgb(0,0,0)" d="M 10591,1983 L 10669,1987 10745,2001 10818,2022 10887,2052 10953,2089 11015,2133 11073,2184 11125,2241 11173,2305 11216,2373 11253,2448 11284,2526 11308,2610 11326,2697 11337,2788 11441,2983 11341,3083 11241,3083 11241,3183 11241,3283 11241,3383 11173,3460 11125,3523 11073,3581 11015,3632 10953,3676 10887,3713 10818,3743 10745,3764 10669,3777 10591,3782 10513,3777 10437,3764 10364,3743 10295,3713 10229,3676 10167,3632 10109,3581 10057,3523 10009,3460 9966,3391 9929,3317 9898,3238 9874,3154 9856,3067 9845,2976 9841,2882 9845,2788 9856,2697 9874,2610 9898,2526 9929,2448 9966,2373 10009,2305 10057,2241 10109,2184 10167,2133 10229,2089 10295,2052 10364,2022 10437,2001 10513,1987 10591,1983 Z"/>
        <path fill="none" stroke="rgb(0,0,0)" d="M 9841,1983 L 9841,1983 Z"/>
        <path fill="none" stroke="rgb(0,0,0)" d="M 11342,3784 L 11342,3784 Z"/>
       </g>
      </g>
      <g class="com.sun.star.drawing.CustomShape">
       <g id="id4">
        <rect class="BoundingBox" stroke="none" fill="none" x="10840" y="2582" width="204" height="304"/>
        <path fill="rgb(25,51,0)" stroke="none" d="M 10940,2583 C 10996,2583 11040,2648 11040,2733 11040,2818 10996,2883 10940,2883 10884,2883 10841,2818 10841,2733 10841,2648 10884,2583 10940,2583 Z M 10841,2583 L 10841,2583 Z M 11042,2884 L 11042,2884 Z"/>
        <path fill="none" stroke="rgb(0,0,0)" d="M 10940,2583 C 10996,2583 11040,2648 11040,2733 11040,2818 10996,2883 10940,2883 10884,2883 10841,2818 10841,2733 10841,2648 10884,2583 10940,2583 Z"/>
        <path fill="none" stroke="rgb(0,0,0)" d="M 10841,2583 L 10841,2583 Z"/>
        <path fill="none" stroke="rgb(0,0,0)" d="M 11042,2884 L 11042,2884 Z"/>
       </g>
      </g>
      <g class="com.sun.star.drawing.OpenBezierShape">
       <g id="id5">
        <rect class="BoundingBox" stroke="none" fill="none" x="10291" y="3033" width="1001" height="328"/>
        <path fill="none" stroke="rgb(0,0,0)" stroke-width="100" stroke-linejoin="round" d="M 11241,3283 C 11080,3318 10885,3318 10741,3283 10502,3224 10367,3118 10341,3083"/>
       </g>
      </g>
      <g class="com.sun.star.drawing.CustomShape">
       <g id="id6">
        <rect class="BoundingBox" stroke="none" fill="none" x="10040" y="3682" width="1104" height="1404"/>
        <path fill="rgb(153,0,0)" stroke="none" d="M 10224,3683 C 10132,3683 10041,3774 10041,3866 L 10041,4900 C 10041,4991 10132,5083 10224,5083 L 10958,5083 C 11050,5083 11142,4991 11142,4900 L 11142,3866 C 11142,3774 11050,3683 10958,3683 L 10224,3683 Z M 10041,3683 L 10041,3683 Z M 11142,5084 L 11142,5084 Z"/>
        <path fill="none" stroke="rgb(52,101,164)" d="M 10224,3683 C 10132,3683 10041,3774 10041,3866 L 10041,4900 C 10041,4991 10132,5083 10224,5083 L 10958,5083 C 11050,5083 11142,4991 11142,4900 L 11142,3866 C 11142,3774 11050,3683 10958,3683 L 10224,3683 Z"/>
        <path fill="none" stroke="rgb(52,101,164)" d="M 10041,3683 L 10041,3683 Z"/>
        <path fill="none" stroke="rgb(52,101,164)" d="M 11142,5084 L 11142,5084 Z"/>
       </g>
      </g>
      <g class="com.sun.star.drawing.CustomShape">
       <g id="id7">
        <rect class="BoundingBox" stroke="none" fill="none" x="10339" y="3804" width="1191" height="1081"/>
        <path fill="rgb(153,0,0)" stroke="none" d="M 11395,4720 L 11263,4883 10340,4130 10606,3805 11528,4558 11395,4720 Z"/>
        <path fill="none" stroke="rgb(0,0,0)" d="M 11395,4720 L 11263,4883 10340,4130 10606,3805 11528,4558 11395,4720 Z"/>
       </g>
      </g>
      <g class="com.sun.star.drawing.CustomShape">
       <g id="id8">
        <rect class="BoundingBox" stroke="none" fill="none" x="10415" y="4925" width="547" height="927"/>
        <path fill="rgb(52,101,164)" stroke="none" d="M 10710,5838 L 10460,5850 10416,4951 10915,4926 10960,5825 10710,5838 Z"/>
        <path fill="none" stroke="rgb(0,0,0)" d="M 10710,5838 L 10460,5850 10416,4951 10915,4926 10960,5825 10710,5838 Z"/>
       </g>
      </g>
      <g class="com.sun.star.drawing.CustomShape">
       <g id="id9">
        <rect class="BoundingBox" stroke="none" fill="none" x="10468" y="5772" width="706" height="213"/>
        <path fill="rgb(51,51,51)" stroke="none" d="M 10502,5783 C 10485,5783 10469,5799 10469,5816 L 10471,5950 C 10471,5966 10488,5983 10505,5983 L 11138,5973 C 11155,5973 11172,5956 11172,5940 L 11170,5806 C 11170,5789 11152,5773 11135,5773 L 10502,5783 Z M 10469,5783 L 10469,5783 Z M 11172,5974 L 11172,5974 Z"/>
        <path fill="none" stroke="rgb(0,0,0)" d="M 10502,5783 C 10485,5783 10469,5799 10469,5816 L 10471,5950 C 10471,5966 10488,5983 10505,5983 L 11138,5973 C 11155,5973 11172,5956 11172,5940 L 11170,5806 C 11170,5789 11152,5773 11135,5773 L 10502,5783 Z"/>
        <path fill="none" stroke="rgb(0,0,0)" d="M 10469,5783 L 10469,5783 Z"/>
        <path fill="none" stroke="rgb(0,0,0)" d="M 11172,5974 L 11172,5974 Z"/>
       </g>
      </g>
      <g class="com.sun.star.drawing.PolyPolygonShape">
       <g id="id10">
        <rect class="BoundingBox" stroke="none" fill="none" x="11265" y="4574" width="439" height="335"/>
        <path fill="rgb(153,102,51)" stroke="none" d="M 11515,4907 L 11352,4865 11266,4834 11477,4575 11629,4624 11664,4671 11622,4686 11685,4737 11702,4784 11674,4816 11645,4855 11595,4877 11555,4887 11555,4887 11555,4887 11515,4907 Z"/>
        <path fill="none" stroke="rgb(0,0,0)" d="M 11515,4907 L 11352,4865 11266,4834 11477,4575 11629,4624 11664,4671 11622,4686 11685,4737 11702,4784 11674,4816 11645,4855 11595,4877 11555,4887 11555,4887 11555,4887 11515,4907 Z"/>
       </g>
      </g>
      <g class="com.sun.star.drawing.CustomShape">
       <g id="id11">
        <rect class="BoundingBox" stroke="none" fill="none" x="10206" y="4825" width="618" height="961"/>
        <path fill="rgb(0,102,153)" stroke="none" d="M 10454,5751 L 10207,5718 10326,4826 10822,4892 10702,5784 10454,5751 Z"/>
        <path fill="none" stroke="rgb(0,0,0)" d="M 10454,5751 L 10207,5718 10326,4826 10822,4892 10702,5784 10454,5751 Z"/>
       </g>
      </g>
      <g class="com.sun.star.drawing.CustomShape">
       <g id="id12">
        <rect class="BoundingBox" stroke="none" fill="none" x="10172" y="5721" width="712" height="254"/>
        <path fill="rgb(51,51,51)" stroke="none" d="M 10218,5724 C 10201,5723 10184,5738 10183,5755 L 10173,5889 C 10172,5905 10187,5923 10204,5924 L 10836,5970 C 10853,5971 10871,5955 10872,5939 L 10882,5805 C 10883,5788 10867,5771 10850,5770 L 10218,5724 Z M 10185,5722 L 10185,5722 Z M 10870,5973 L 10870,5973 Z"/>
        <path fill="none" stroke="rgb(0,0,0)" d="M 10218,5724 C 10201,5723 10184,5738 10183,5755 L 10173,5889 C 10172,5905 10187,5923 10204,5924 L 10836,5970 C 10853,5971 10871,5955 10872,5939 L 10882,5805 C 10883,5788 10867,5771 10850,5770 L 10218,5724 Z"/>
        <path fill="none" stroke="rgb(0,0,0)" d="M 10185,5722 L 10185,5722 Z"/>
        <path fill="none" stroke="rgb(0,0,0)" d="M 10870,5973 L 10870,5973 Z"/>
       </g>
      </g>
      <g class="com.sun.star.drawing.ClosedBezierShape">
       <g id="id13">
        <rect class="BoundingBox" stroke="none" fill="none" x="9753" y="1980" width="1459" height="1964"/>
        <path fill="rgb(28,28,28)" stroke="none" d="M 10004,3942 C 10014,3681 9746,3127 9753,2866 9757,2722 9809,2424 9810,2280 9943,2180 10077,2080 10210,1980 10443,1980 10677,1980 10910,1980 11010,2080 11110,2180 11210,2280 10910,2313 10610,2347 10310,2380 10133,2751 10181,3571 10004,3942 Z"/>
       </g>
      </g>
     </g>
    </g>
   </g>
  </g>
 </g>
</svg>