<?xml version="1.0" encoding="UTF-8"?>
<!DOCTYPE svg PUBLIC "-//W3C//DTD SVG 1.1//EN" "http://www.w3.org/Graphics/SVG/1.1/DTD/svg11.dtd">
<svg version="1.2" width="19.19mm" height="41.04mm" viewBox="2174 1980 1919 4104" preserveAspectRatio="xMidYMid" fill-rule="evenodd" stroke-width="28.222" stroke-linejoin="round" xmlns="http://www.w3.org/2000/svg" xmlns:ooo="http://xml.openoffice.org/svg/export" xmlns:xlink="http://www.w3.org/1999/xlink" xmlns:presentation="http://sun.com/xmlns/staroffice/presentation" xmlns:smil="http://www.w3.org/2001/SMIL20/" xmlns:anim="urn:oasis:names:tc:opendocument:xmlns:animation:1.0" xml:space="preserve">
 <defs class="ClipPathGroup">
  <clipPath id="presentation_clip_path" clipPathUnits="userSpaceOnUse">
   <rect x="2174" y="1980" width="1919" height="4104"/>
  </clipPath>
  <clipPath id="presentation_clip_path_shrink" clipPathUnits="userSpaceOnUse">
   <rect x="2175" y="1984" width="1916" height="4096"/>
  </clipPath>
 </defs>
 <defs class="TextShapeIndex">
  <g ooo:slide="id1" ooo:id-list="id3 id4 id5 id6 id7 id8 id9 id10 id11 id12 id13"/>
 </defs>
 <defs class="EmbeddedBulletChars">
  <g id="bullet-char-template-57356" transform="scale(0.00048828125,-0.00048828125)">
   <path d="M 580,1141 L 1163,571 580,0 -4,571 580,1141 Z"/>
  </g>
  <g id="bullet-char-template-57354" transform="scale(0.00048828125,-0.00048828125)">
   <path d="M 8,1128 L 1137,1128 1137,0 8,0 8,1128 Z"/>
  </g>
  <g id="bullet-char-template-10146" transform="scale(0.00048828125,-0.00048828125)">
   <path d="M 174,0 L 602,739 174,1481 1456,739 174,0 Z M 1358,739 L 309,1346 659,739 1358,739 Z"/>
  </g>
  <g id="bullet-char-template-10132" transform="scale(0.00048828125,-0.00048828125)">
   <path d="M 2015,739 L 1276,0 717,0 1260,543 174,543 174,936 1260,936 717,1481 1274,1481 2015,739 Z"/>
  </g>
  <g id="bullet-char-template-10007" transform="scale(0.00048828125,-0.00048828125)">
   <path d="M 0,-2 C -7,14 -16,27 -25,37 L 356,567 C 262,823 215,952 215,954 215,979 228,992 255,992 264,992 276,990 289,987 310,991 331,999 354,1012 L 381,999 492,748 772,1049 836,1024 860,1049 C 881,1039 901,1025 922,1006 886,937 835,863 770,784 769,783 710,716 594,584 L 774,223 C 774,196 753,168 711,139 L 727,119 C 717,90 699,76 672,76 641,76 570,178 457,381 L 164,-76 C 142,-110 111,-127 72,-127 30,-127 9,-110 8,-76 1,-67 -2,-52 -2,-32 -2,-23 -1,-13 0,-2 Z"/>
  </g>
  <g id="bullet-char-template-10004" transform="scale(0.00048828125,-0.00048828125)">
   <path d="M 285,-33 C 182,-33 111,30 74,156 52,228 41,333 41,471 41,549 55,616 82,672 116,743 169,778 240,778 293,778 328,747 346,684 L 369,508 C 377,444 397,411 428,410 L 1163,1116 C 1174,1127 1196,1133 1229,1133 1271,1133 1292,1118 1292,1087 L 1292,965 C 1292,929 1282,901 1262,881 L 442,47 C 390,-6 338,-33 285,-33 Z"/>
  </g>
  <g id="bullet-char-template-9679" transform="scale(0.00048828125,-0.00048828125)">
   <path d="M 813,0 C 632,0 489,54 383,161 276,268 223,411 223,592 223,773 276,916 383,1023 489,1130 632,1184 813,1184 992,1184 1136,1130 1245,1023 1353,916 1407,772 1407,592 1407,412 1353,268 1245,161 1136,54 992,0 813,0 Z"/>
  </g>
  <g id="bullet-char-template-8226" transform="scale(0.00048828125,-0.00048828125)">
   <path d="M 346,457 C 273,457 209,483 155,535 101,586 74,649 74,723 74,796 101,859 155,911 209,963 273,989 346,989 419,989 480,963 531,910 582,859 608,796 608,723 608,648 583,586 532,535 482,483 420,457 346,457 Z"/>
  </g>
  <g id="bullet-char-template-8211" transform="scale(0.00048828125,-0.00048828125)">
   <path d="M -4,459 L 1135,459 1135,606 -4,606 -4,459 Z"/>
  </g>
  <g id="bullet-char-template-61548" transform="scale(0.00048828125,-0.00048828125)">
   <path d="M 173,740 C 173,903 231,1043 346,1159 462,1274 601,1332 765,1332 928,1332 1067,1274 1183,1159 1299,1043 1357,903 1357,740 1357,577 1299,437 1183,322 1067,206 928,148 765,148 601,148 462,206 346,322 231,437 173,577 173,740 Z"/>
  </g>
 </defs>
 <defs class="TextEmbeddedBitmaps"/>
 <g class="SlideGroup">
  <g>
   <g id="container-id1">
    <g id="id1" class="Slide" clip-path="url(#presentation_clip_path)">
     <g class="Page">
      <g class="com.sun.star.drawing.PolyPolygonShape">
       <g id="id3">
        <rect class="BoundingBox" stroke="none" fill="none" x="2230" y="1979" width="1603" height="1804"/>
        <path fill="rgb(153,102,51)" stroke="none" d="M 2981,1980 L 3059,1984 3135,1998 3208,2019 3277,2049 3343,2086 3405,2130 3463,2181 3515,2238 3563,2302 3606,2370 3643,2445 3674,2523 3698,2607 3716,2694 3727,2785 3831,2980 3731,3080 3631,3080 3631,3180 3631,3280 3631,3380 3563,3457 3515,3520 3463,3578 3405,3629 3343,3673 3277,3710 3208,3740 3135,3761 3059,3774 2981,3779 2903,3774 2827,3761 2754,3740 2685,3710 2619,3673 2557,3629 2499,3578 2447,3520 2399,3457 2356,3388 2319,3314 2288,3235 2264,3151 2246,3064 2235,2973 2231,2879 2235,2785 2246,2694 2264,2607 2288,2523 2319,2445 2356,2370 2399,2302 2447,2238 2499,2181 2557,2130 2619,2086 2685,2049 2754,2019 2827,1998 2903,1984 2981,1980 Z M 2231,1980 L 2231,1980 Z M 3732,3781 L 3732,3781 Z"/>
        <path fill="none" stroke="rgb(0,0,0)" d="M 2981,1980 L 3059,1984 3135,1998 3208,2019 3277,2049 3343,2086 3405,2130 3463,2181 3515,2238 3563,2302 3606,2370 3643,2445 3674,2523 3698,2607 3716,2694 3727,2785 3831,2980 3731,3080 3631,3080 3631,3180 3631,3280 3631,3380 3563,3457 3515,3520 3463,3578 3405,3629 3343,3673 3277,3710 3208,3740 3135,3761 3059,3774 2981,3779 2903,3774 2827,3761 2754,3740 2685,3710 2619,3673 2557,3629 2499,3578 2447,3520 2399,3457 2356,3388 2319,3314 2288,3235 2264,3151 2246,3064 2235,2973 2231,2879 2235,2785 2246,2694 2264,2607 2288,2523 2319,2445 2356,2370 2399,2302 2447,2238 2499,2181 2557,2130 2619,2086 2685,2049 2754,2019 2827,1998 2903,1984 2981,1980 Z"/>
        <path fill="none" stroke="rgb(0,0,0)" d="M 2231,1980 L 2231,1980 Z"/>
        <path fill="none" stroke="rgb(0,0,0)" d="M 3732,3781 L 3732,3781 Z"/>
       </g>
      </g>
      <g class="com.sun.star.drawing.CustomShape">
       <g id="id4">
        <rect class="BoundingBox" stroke="none" fill="none" x="3230" y="2579" width="204" height="304"/>
        <path fill="rgb(25,51,0)" stroke="none" d="M 3330,2580 C 3386,2580 3430,2645 3430,2730 3430,2815 3386,2880 3330,2880 3274,2880 3231,2815 3231,2730 3231,2645 3274,2580 3330,2580 Z M 3231,2580 L 3231,2580 Z M 3432,2881 L 3432,2881 Z"/>
        <path fill="none" stroke="rgb(0,0,0)" d="M 3330,2580 C 3386,2580 3430,2645 3430,2730 3430,2815 3386,2880 3330,2880 3274,2880 3231,2815 3231,2730 3231,2645 3274,2580 3330,2580 Z"/>
        <path fill="none" stroke="rgb(0,0,0)" d="M 3231,2580 L 3231,2580 Z"/>
        <path fill="none" stroke="rgb(0,0,0)" d="M 3432,2881 L 3432,2881 Z"/>
       </g>
      </g>
      <g class="com.sun.star.drawing.OpenBezierShape">
       <g id="id5">
        <rect class="BoundingBox" stroke="none" fill="none" x="2681" y="3030" width="1001" height="328"/>
        <path fill="none" stroke="rgb(0,0,0)" stroke-width="100" stroke-linejoin="round" d="M 3631,3280 C 3470,3315 3275,3315 3131,3280 2892,3221 2757,3115 2731,3080"/>
       </g>
      </g>
      <g class="com.sun.star.drawing.ClosedBezierShape">
       <g id="id6">
        <rect class="BoundingBox" stroke="none" fill="none" x="2173" y="1980" width="1459" height="1964"/>
        <path fill="rgb(28,28,28)" stroke="none" d="M 2425,3942 C 2435,3681 2167,3127 2174,2866 2178,2722 2230,2424 2231,2280 2364,2180 2498,2080 2631,1980 2864,1980 3098,1980 3331,1980 3431,2080 3531,2180 3631,2280 3331,2313 3031,2347 2731,2380 2554,2751 2602,3571 2425,3942 Z"/>
       </g>
      </g>
      <g class="com.sun.star.drawing.CustomShape">
       <g id="id7">
        <rect class="BoundingBox" stroke="none" fill="none" x="2430" y="3679" width="1104" height="1404"/>
        <path fill="rgb(153,0,0)" stroke="none" d="M 2614,3680 C 2522,3680 2431,3771 2431,3863 L 2431,4897 C 2431,4988 2522,5080 2614,5080 L 3348,5080 C 3440,5080 3532,4988 3532,4897 L 3532,3863 C 3532,3771 3440,3680 3348,3680 L 2614,3680 Z M 2431,3680 L 2431,3680 Z M 3532,5081 L 3532,5081 Z"/>
        <path fill="none" stroke="rgb(52,101,164)" d="M 2614,3680 C 2522,3680 2431,3771 2431,3863 L 2431,4897 C 2431,4988 2522,5080 2614,5080 L 3348,5080 C 3440,5080 3532,4988 3532,4897 L 3532,3863 C 3532,3771 3440,3680 3348,3680 L 2614,3680 Z"/>
        <path fill="none" stroke="rgb(52,101,164)" d="M 2431,3680 L 2431,3680 Z"/>
        <path fill="none" stroke="rgb(52,101,164)" d="M 3532,5081 L 3532,5081 Z"/>
       </g>
      </g>
      <g class="com.sun.star.drawing.CustomShape">
       <g id="id8">
        <rect class="BoundingBox" stroke="none" fill="none" x="2904" y="4877" width="729" height="1005"/>
        <path fill="rgb(52,101,164)" stroke="none" d="M 3390,5812 L 3150,5880 2905,5014 3386,4878 3631,5744 3390,5812 Z"/>
        <path fill="none" stroke="rgb(0,0,0)" d="M 3390,5812 L 3150,5880 2905,5014 3386,4878 3631,5744 3390,5812 Z"/>
       </g>
      </g>
      <g class="com.sun.star.drawing.CustomShape">
       <g id="id9">
        <rect class="BoundingBox" stroke="none" fill="none" x="2329" y="4885" width="704" height="997"/>
        <path fill="rgb(52,101,164)" stroke="none" d="M 2573,5820 L 2330,5760 2546,4886 3031,5006 2815,5880 2573,5820 Z"/>
        <path fill="none" stroke="rgb(0,0,0)" d="M 2573,5820 L 2330,5760 2546,4886 3031,5006 2815,5880 2573,5820 Z"/>
       </g>
      </g>
      <g class="com.sun.star.drawing.CustomShape">
       <g id="id10">
        <rect class="BoundingBox" stroke="none" fill="none" x="2729" y="3801" width="1191" height="1081"/>
        <path fill="rgb(153,0,0)" stroke="none" d="M 3785,4717 L 3653,4880 2730,4127 2996,3802 3918,4555 3785,4717 Z"/>
        <path fill="none" stroke="rgb(0,0,0)" d="M 3785,4717 L 3653,4880 2730,4127 2996,3802 3918,4555 3785,4717 Z"/>
       </g>
      </g>
      <g class="com.sun.star.drawing.CustomShape">
       <g id="id11">
        <rect class="BoundingBox" stroke="none" fill="none" x="3130" y="5668" width="731" height="405"/>
        <path fill="rgb(51,51,51)" stroke="none" d="M 3162,5880 C 3146,5886 3136,5906 3142,5922 L 3186,6049 C 3191,6064 3212,6075 3228,6069 L 3826,5860 C 3842,5854 3853,5832 3847,5817 L 3803,5691 C 3798,5675 3776,5665 3760,5671 L 3162,5880 Z M 3131,5891 L 3131,5891 Z M 3859,5849 L 3859,5849 Z"/>
        <path fill="none" stroke="rgb(52,101,164)" d="M 3162,5880 C 3146,5886 3136,5906 3142,5922 L 3186,6049 C 3191,6064 3212,6075 3228,6069 L 3826,5860 C 3842,5854 3853,5832 3847,5817 L 3803,5691 C 3798,5675 3776,5665 3760,5671 L 3162,5880 Z"/>
        <path fill="none" stroke="rgb(52,101,164)" d="M 3131,5891 L 3131,5891 Z"/>
        <path fill="none" stroke="rgb(52,101,164)" d="M 3859,5849 L 3859,5849 Z"/>
       </g>
      </g>
      <g class="com.sun.star.drawing.CustomShape">
       <g id="id12">
        <rect class="BoundingBox" stroke="none" fill="none" x="2310" y="5697" width="716" height="388"/>
        <path fill="rgb(51,51,51)" stroke="none" d="M 2389,5707 C 2373,5703 2353,5714 2349,5730 L 2312,5859 C 2308,5874 2318,5895 2335,5900 L 2945,6073 C 2961,6077 2982,6066 2986,6050 L 3023,5921 C 3028,5905 3016,5885 2999,5880 L 2389,5707 Z M 2358,5698 L 2358,5698 Z M 2977,6083 L 2977,6083 Z"/>
        <path fill="none" stroke="rgb(52,101,164)" d="M 2389,5707 C 2373,5703 2353,5714 2349,5730 L 2312,5859 C 2308,5874 2318,5895 2335,5900 L 2945,6073 C 2961,6077 2982,6066 2986,6050 L 3023,5921 C 3028,5905 3016,5885 2999,5880 L 2389,5707 Z"/>
        <path fill="none" stroke="rgb(52,101,164)" d="M 2358,5698 L 2358,5698 Z"/>
        <path fill="none" stroke="rgb(52,101,164)" d="M 2977,6083 L 2977,6083 Z"/>
       </g>
      </g>
      <g class="com.sun.star.drawing.PolyPolygonShape">
       <g id="id13">
        <rect class="BoundingBox" stroke="none" fill="none" x="3655" y="4571" width="439" height="335"/>
        <path fill="rgb(153,102,51)" stroke="none" d="M 3905,4904 L 3742,4862 3656,4831 3867,4572 4019,4621 4054,4668 4012,4683 4075,4734 4092,4781 4064,4813 4035,4852 3985,4874 3945,4884 3945,4884 3945,4884 3905,4904 Z"/>
        <path fill="none" stroke="rgb(0,0,0)" d="M 3905,4904 L 3742,4862 3656,4831 3867,4572 4019,4621 4054,4668 4012,4683 4075,4734 4092,4781 4064,4813 4035,4852 3985,4874 3945,4884 3945,4884 3945,4884 3905,4904 Z"/>
       </g>
      </g>
     </g>
    </g>
   </g>
  </g>
 </g>
</svg>