<?xml version="1.0" encoding="UTF-8"?>
<!DOCTYPE svg PUBLIC "-//W3C//DTD SVG 1.1//EN" "http://www.w3.org/Graphics/SVG/1.1/DTD/svg11.dtd">
<svg version="1.2" width="19.62mm" height="41.03mm" viewBox="2131 7481 1962 4103" preserveAspectRatio="xMidYMid" fill-rule="evenodd" stroke-width="28.222" stroke-linejoin="round" xmlns="http://www.w3.org/2000/svg" xmlns:ooo="http://xml.openoffice.org/svg/export" xmlns:xlink="http://www.w3.org/1999/xlink" xmlns:presentation="http://sun.com/xmlns/staroffice/presentation" xmlns:smil="http://www.w3.org/2001/SMIL20/" xmlns:anim="urn:oasis:names:tc:opendocument:xmlns:animation:1.0" xml:space="preserve">
 <defs class="ClipPathGroup">
  <clipPath id="presentation_clip_path" clipPathUnits="userSpaceOnUse">
   <rect x="2131" y="7481" width="1962" height="4103"/>
  </clipPath>
  <clipPath id="presentation_clip_path_shrink" clipPathUnits="userSpaceOnUse">
   <rect x="2132" y="7485" width="1959" height="4095"/>
  </clipPath>
 </defs>
 <defs class="TextShapeIndex">
  <g ooo:slide="id1" ooo:id-list="id3 id4 id5 id6 id7 id8 id9 id10 id11 id12 id13"/>
 </defs>
 <defs class="EmbeddedBulletChars">
  <g id="bullet-char-template-57356" transform="scale(0.00048828125,-0.00048828125)">
   <path d="M 580,1141 L 1163,571 580,0 -4,571 580,1141 Z"/>
  </g>
  <g id="bullet-char-template-57354" transform="scale(0.00048828125,-0.00048828125)">
   <path d="M 8,1128 L 1137,1128 1137,0 8,0 8,1128 Z"/>
  </g>
  <g id="bullet-char-template-10146" transform="scale(0.00048828125,-0.00048828125)">
   <path d="M 174,0 L 602,739 174,1481 1456,739 174,0 Z M 1358,739 L 309,1346 659,739 1358,739 Z"/>
  </g>
  <g id="bullet-char-template-10132" transform="scale(0.00048828125,-0.00048828125)">
   <path d="M 2015,739 L 1276,0 717,0 1260,543 174,543 174,936 1260,936 717,1481 1274,1481 2015,739 Z"/>
  </g>
  <g id="bullet-char-template-10007" transform="scale(0.00048828125,-0.00048828125)">
   <path d="M 0,-2 C -7,14 -16,27 -25,37 L 356,567 C 262,823 215,952 215,954 215,979 228,992 255,992 264,992 276,990 289,987 310,991 331,999 354,1012 L 381,999 492,748 772,1049 836,1024 860,1049 C 881,1039 901,1025 922,1006 886,937 835,863 770,784 769,783 710,716 594,584 L 774,223 C 774,196 753,168 711,139 L 727,119 C 717,90 699,76 672,76 641,76 570,178 457,381 L 164,-76 C 142,-110 111,-127 72,-127 30,-127 9,-110 8,-76 1,-67 -2,-52 -2,-32 -2,-23 -1,-13 0,-2 Z"/>
  </g>
  <g id="bullet-char-template-10004" transform="scale(0.00048828125,-0.00048828125)">
   <path d="M 285,-33 C 182,-33 111,30 74,156 52,228 41,333 41,471 41,549 55,616 82,672 116,743 169,778 240,778 293,778 328,747 346,684 L 369,508 C 377,444 397,411 428,410 L 1163,1116 C 1174,1127 1196,1133 1229,1133 1271,1133 1292,1118 1292,1087 L 1292,965 C 1292,929 1282,901 1262,881 L 442,47 C 390,-6 338,-33 285,-33 Z"/>
  </g>
  <g id="bullet-char-template-9679" transform="scale(0.00048828125,-0.00048828125)">
   <path d="M 813,0 C 632,0 489,54 383,161 276,268 223,411 223,592 223,773 276,916 383,1023 489,1130 632,1184 813,1184 992,1184 1136,1130 1245,1023 1353,916 1407,772 1407,592 1407,412 1353,268 1245,161 1136,54 992,0 813,0 Z"/>
  </g>
  <g id="bullet-char-template-8226" transform="scale(0.00048828125,-0.00048828125)">
   <path d="M 346,457 C 273,457 209,483 155,535 101,586 74,649 74,723 74,796 101,859 155,911 209,963 273,989 346,989 419,989 480,963 531,910 582,859 608,796 608,723 608,648 583,586 532,535 482,483 420,457 346,457 Z"/>
  </g>
  <g id="bullet-char-template-8211" transform="scale(0.00048828125,-0.00048828125)">
   <path d="M -4,459 L 1135,459 1135,606 -4,606 -4,459 Z"/>
  </g>
  <g id="bullet-char-template-61548" transform="scale(0.00048828125,-0.00048828125)">
   <path d="M 173,740 C 173,903 231,1043 346,1159 462,1274 601,1332 765,1332 928,1332 1067,1274 1183,1159 1299,1043 1357,903 1357,740 1357,577 1299,437 1183,322 1067,206 928,148 765,148 601,148 462,206 346,322 231,437 173,577 173,740 Z"/>
  </g>
 </defs>
 <defs class="TextEmbeddedBitmaps"/>
 <g class="SlideGroup">
  <g>
   <g id="container-id1">
    <g id="id1" class="Slide" clip-path="url(#presentation_clip_path)">
     <g class="Page">
      <g class="com.sun.star.drawing.PolyPolygonShape">
       <g id="id3">
        <rect class="BoundingBox" stroke="none" fill="none" x="2391" y="7480" width="1603" height="1804"/>
        <path fill="rgb(255,255,204)" stroke="none" d="M 3242,7481 L 3164,7485 3088,7499 3015,7520 2946,7550 2880,7587 2818,7631 2760,7682 2708,7739 2660,7803 2617,7871 2580,7946 2549,8024 2525,8108 2507,8195 2496,8286 2392,8481 2492,8581 2592,8581 2592,8681 2592,8781 2592,8881 2660,8958 2708,9021 2760,9079 2818,9130 2880,9174 2946,9211 3015,9241 3088,9262 3164,9275 3242,9280 3320,9275 3396,9262 3469,9241 3538,9211 3604,9174 3666,9130 3724,9079 3776,9021 3824,8958 3867,8889 3904,8815 3935,8736 3959,8652 3977,8565 3988,8474 3992,8380 3988,8286 3977,8195 3959,8108 3935,8024 3904,7946 3867,7871 3824,7803 3776,7739 3724,7682 3666,7631 3604,7587 3538,7550 3469,7520 3396,7499 3320,7485 3242,7481 Z M 3992,7481 L 3992,7481 Z M 2491,9282 L 2491,9282 Z"/>
        <path fill="none" stroke="rgb(0,0,0)" d="M 3242,7481 L 3164,7485 3088,7499 3015,7520 2946,7550 2880,7587 2818,7631 2760,7682 2708,7739 2660,7803 2617,7871 2580,7946 2549,8024 2525,8108 2507,8195 2496,8286 2392,8481 2492,8581 2592,8581 2592,8681 2592,8781 2592,8881 2660,8958 2708,9021 2760,9079 2818,9130 2880,9174 2946,9211 3015,9241 3088,9262 3164,9275 3242,9280 3320,9275 3396,9262 3469,9241 3538,9211 3604,9174 3666,9130 3724,9079 3776,9021 3824,8958 3867,8889 3904,8815 3935,8736 3959,8652 3977,8565 3988,8474 3992,8380 3988,8286 3977,8195 3959,8108 3935,8024 3904,7946 3867,7871 3824,7803 3776,7739 3724,7682 3666,7631 3604,7587 3538,7550 3469,7520 3396,7499 3320,7485 3242,7481 Z"/>
        <path fill="none" stroke="rgb(0,0,0)" d="M 3992,7481 L 3992,7481 Z"/>
        <path fill="none" stroke="rgb(0,0,0)" d="M 2491,9282 L 2491,9282 Z"/>
       </g>
      </g>
      <g class="com.sun.star.drawing.CustomShape">
       <g id="id4">
        <rect class="BoundingBox" stroke="none" fill="none" x="2790" y="8080" width="204" height="304"/>
        <path fill="rgb(114,159,207)" stroke="none" d="M 2893,8081 C 2837,8081 2793,8146 2793,8231 2793,8316 2837,8381 2893,8381 2949,8381 2992,8316 2992,8231 2992,8146 2949,8081 2893,8081 Z M 2992,8081 L 2992,8081 Z M 2791,8382 L 2791,8382 Z"/>
        <path fill="none" stroke="rgb(52,101,164)" d="M 2893,8081 C 2837,8081 2793,8146 2793,8231 2793,8316 2837,8381 2893,8381 2949,8381 2992,8316 2992,8231 2992,8146 2949,8081 2893,8081 Z"/>
        <path fill="none" stroke="rgb(52,101,164)" d="M 2992,8081 L 2992,8081 Z"/>
        <path fill="none" stroke="rgb(52,101,164)" d="M 2791,8382 L 2791,8382 Z"/>
       </g>
      </g>
      <g class="com.sun.star.drawing.OpenBezierShape">
       <g id="id5">
        <rect class="BoundingBox" stroke="none" fill="none" x="2542" y="8531" width="1001" height="328"/>
        <path fill="none" stroke="rgb(0,0,0)" stroke-width="100" stroke-linejoin="round" d="M 2592,8781 C 2753,8816 2948,8816 3092,8781 3331,8722 3466,8616 3492,8581"/>
       </g>
      </g>
      <g class="com.sun.star.drawing.PolyPolygonShape">
       <g id="id6">
        <rect class="BoundingBox" stroke="none" fill="none" x="2591" y="7480" width="1503" height="1403"/>
        <path fill="rgb(102,51,0)" stroke="none" d="M 4092,8881 L 3992,7781 3592,7481 2892,7481 2592,7781 3492,7881 4092,8881 Z"/>
        <path fill="none" stroke="rgb(52,101,164)" d="M 4092,8881 L 3992,7781 3592,7481 2892,7481 2592,7781 3492,7881 4092,8881 Z"/>
       </g>
      </g>
      <g class="com.sun.star.drawing.CustomShape">
       <g id="id7">
        <rect class="BoundingBox" stroke="none" fill="none" x="2690" y="9180" width="1104" height="1404"/>
        <path fill="rgb(0,120,38)" stroke="none" d="M 3609,9181 C 3701,9181 3792,9272 3792,9364 L 3792,10398 C 3792,10489 3701,10581 3609,10581 L 2875,10581 C 2783,10581 2691,10489 2691,10398 L 2691,9364 C 2691,9272 2783,9181 2875,9181 L 3609,9181 Z M 3792,9181 L 3792,9181 Z M 2691,10582 L 2691,10582 Z"/>
        <path fill="none" stroke="rgb(52,101,164)" d="M 3609,9181 C 3701,9181 3792,9272 3792,9364 L 3792,10398 C 3792,10489 3701,10581 3609,10581 L 2875,10581 C 2783,10581 2691,10489 2691,10398 L 2691,9364 C 2691,9272 2783,9181 2875,9181 L 3609,9181 Z"/>
        <path fill="none" stroke="rgb(52,101,164)" d="M 3792,9181 L 3792,9181 Z"/>
        <path fill="none" stroke="rgb(52,101,164)" d="M 2691,10582 L 2691,10582 Z"/>
       </g>
      </g>
      <g class="com.sun.star.drawing.CustomShape">
       <g id="id8">
        <rect class="BoundingBox" stroke="none" fill="none" x="2591" y="10378" width="729" height="1005"/>
        <path fill="rgb(52,101,164)" stroke="none" d="M 2833,11313 L 2592,11245 2837,10379 3318,10515 3073,11381 2833,11313 Z"/>
        <path fill="none" stroke="rgb(0,0,0)" d="M 2833,11313 L 2592,11245 2837,10379 3318,10515 3073,11381 2833,11313 Z"/>
       </g>
      </g>
      <g class="com.sun.star.drawing.CustomShape">
       <g id="id9">
        <rect class="BoundingBox" stroke="none" fill="none" x="3190" y="10386" width="705" height="999"/>
        <path fill="rgb(52,101,164)" stroke="none" d="M 3650,11323 L 3408,11383 3191,10507 3676,10387 3893,11262 3650,11323 Z"/>
        <path fill="none" stroke="rgb(0,0,0)" d="M 3650,11323 L 3408,11383 3191,10507 3676,10387 3893,11262 3650,11323 Z"/>
       </g>
      </g>
      <g class="com.sun.star.drawing.CustomShape">
       <g id="id10">
        <rect class="BoundingBox" stroke="none" fill="none" x="2304" y="9303" width="1186" height="1079"/>
        <path fill="rgb(0,120,38)" stroke="none" d="M 2438,10217 L 2305,10055 3222,9304 3488,9629 2571,10380 2438,10217 Z"/>
        <path fill="none" stroke="rgb(0,0,0)" d="M 2438,10217 L 2305,10055 3222,9304 3488,9629 2571,10380 2438,10217 Z"/>
       </g>
      </g>
      <g class="com.sun.star.drawing.CustomShape">
       <g id="id11">
        <rect class="BoundingBox" stroke="none" fill="none" x="2350" y="11169" width="731" height="405"/>
        <path fill="rgb(51,51,51)" stroke="none" d="M 3048,11381 C 3064,11387 3074,11407 3068,11423 L 3024,11550 C 3019,11565 2998,11576 2982,11570 L 2384,11361 C 2368,11355 2357,11333 2363,11318 L 2407,11192 C 2412,11176 2434,11166 2450,11172 L 3048,11381 Z M 3079,11392 L 3079,11392 Z M 2351,11350 L 2351,11350 Z"/>
        <path fill="none" stroke="rgb(52,101,164)" d="M 3048,11381 C 3064,11387 3074,11407 3068,11423 L 3024,11550 C 3019,11565 2998,11576 2982,11570 L 2384,11361 C 2368,11355 2357,11333 2363,11318 L 2407,11192 C 2412,11176 2434,11166 2450,11172 L 3048,11381 Z"/>
        <path fill="none" stroke="rgb(52,101,164)" d="M 3079,11392 L 3079,11392 Z"/>
        <path fill="none" stroke="rgb(52,101,164)" d="M 2351,11350 L 2351,11350 Z"/>
       </g>
      </g>
      <g class="com.sun.star.drawing.CustomShape">
       <g id="id12">
        <rect class="BoundingBox" stroke="none" fill="none" x="3198" y="11197" width="716" height="388"/>
        <path fill="rgb(51,51,51)" stroke="none" d="M 3834,11207 C 3850,11203 3870,11214 3874,11230 L 3911,11359 C 3915,11374 3905,11395 3888,11400 L 3278,11573 C 3262,11577 3241,11566 3237,11550 L 3200,11421 C 3195,11405 3207,11385 3224,11380 L 3834,11207 Z M 3865,11198 L 3865,11198 Z M 3246,11583 L 3246,11583 Z"/>
        <path fill="none" stroke="rgb(52,101,164)" d="M 3834,11207 C 3850,11203 3870,11214 3874,11230 L 3911,11359 C 3915,11374 3905,11395 3888,11400 L 3278,11573 C 3262,11577 3241,11566 3237,11550 L 3200,11421 C 3195,11405 3207,11385 3224,11380 L 3834,11207 Z"/>
        <path fill="none" stroke="rgb(52,101,164)" d="M 3865,11198 L 3865,11198 Z"/>
        <path fill="none" stroke="rgb(52,101,164)" d="M 3246,11583 L 3246,11583 Z"/>
       </g>
      </g>
      <g class="com.sun.star.drawing.PolyPolygonShape">
       <g id="id13">
        <rect class="BoundingBox" stroke="none" fill="none" x="2130" y="10072" width="439" height="335"/>
        <path fill="rgb(255,255,204)" stroke="none" d="M 2318,10405 L 2481,10363 2567,10332 2356,10073 2204,10122 2169,10169 2211,10184 2148,10235 2131,10282 2159,10314 2188,10353 2238,10375 2278,10385 2278,10385 2278,10385 2318,10405 Z"/>
        <path fill="none" stroke="rgb(0,0,0)" d="M 2318,10405 L 2481,10363 2567,10332 2356,10073 2204,10122 2169,10169 2211,10184 2148,10235 2131,10282 2159,10314 2188,10353 2238,10375 2278,10385 2278,10385 2278,10385 2318,10405 Z"/>
       </g>
      </g>
     </g>
    </g>
   </g>
  </g>
 </g>
</svg>