<?xml version="1.0" encoding="UTF-8"?>
<!DOCTYPE svg PUBLIC "-//W3C//DTD SVG 1.1//EN" "http://www.w3.org/Graphics/SVG/1.1/DTD/svg11.dtd">
<svg version="1.2" width="19.3mm" height="40.25mm" viewBox="4732 7474 1930 4025" preserveAspectRatio="xMidYMid" fill-rule="evenodd" stroke-width="28.222" stroke-linejoin="round" xmlns="http://www.w3.org/2000/svg" xmlns:ooo="http://xml.openoffice.org/svg/export" xmlns:xlink="http://www.w3.org/1999/xlink" xmlns:presentation="http://sun.com/xmlns/staroffice/presentation" xmlns:smil="http://www.w3.org/2001/SMIL20/" xmlns:anim="urn:oasis:names:tc:opendocument:xmlns:animation:1.0" xml:space="preserve">
 <defs class="ClipPathGroup">
  <clipPath id="presentation_clip_path" clipPathUnits="userSpaceOnUse">
   <rect x="4732" y="7474" width="1930" height="4025"/>
  </clipPath>
  <clipPath id="presentation_clip_path_shrink" clipPathUnits="userSpaceOnUse">
   <rect x="4733" y="7478" width="1927" height="4017"/>
  </clipPath>
 </defs>
 <defs class="TextShapeIndex">
  <g ooo:slide="id1" ooo:id-list="id3 id4 id5 id6 id7 id8 id9 id10 id11 id12 id13"/>
 </defs>
 <defs class="EmbeddedBulletChars">
  <g id="bullet-char-template-57356" transform="scale(0.00048828125,-0.00048828125)">
   <path d="M 580,1141 L 1163,571 580,0 -4,571 580,1141 Z"/>
  </g>
  <g id="bullet-char-template-57354" transform="scale(0.00048828125,-0.00048828125)">
   <path d="M 8,1128 L 1137,1128 1137,0 8,0 8,1128 Z"/>
  </g>
  <g id="bullet-char-template-10146" transform="scale(0.00048828125,-0.00048828125)">
   <path d="M 174,0 L 602,739 174,1481 1456,739 174,0 Z M 1358,739 L 309,1346 659,739 1358,739 Z"/>
  </g>
  <g id="bullet-char-template-10132" transform="scale(0.00048828125,-0.00048828125)">
   <path d="M 2015,739 L 1276,0 717,0 1260,543 174,543 174,936 1260,936 717,1481 1274,1481 2015,739 Z"/>
  </g>
  <g id="bullet-char-template-10007" transform="scale(0.00048828125,-0.00048828125)">
   <path d="M 0,-2 C -7,14 -16,27 -25,37 L 356,567 C 262,823 215,952 215,954 215,979 228,992 255,992 264,992 276,990 289,987 310,991 331,999 354,1012 L 381,999 492,748 772,1049 836,1024 860,1049 C 881,1039 901,1025 922,1006 886,937 835,863 770,784 769,783 710,716 594,584 L 774,223 C 774,196 753,168 711,139 L 727,119 C 717,90 699,76 672,76 641,76 570,178 457,381 L 164,-76 C 142,-110 111,-127 72,-127 30,-127 9,-110 8,-76 1,-67 -2,-52 -2,-32 -2,-23 -1,-13 0,-2 Z"/>
  </g>
  <g id="bullet-char-template-10004" transform="scale(0.00048828125,-0.00048828125)">
   <path d="M 285,-33 C 182,-33 111,30 74,156 52,228 41,333 41,471 41,549 55,616 82,672 116,743 169,778 240,778 293,778 328,747 346,684 L 369,508 C 377,444 397,411 428,410 L 1163,1116 C 1174,1127 1196,1133 1229,1133 1271,1133 1292,1118 1292,1087 L 1292,965 C 1292,929 1282,901 1262,881 L 442,47 C 390,-6 338,-33 285,-33 Z"/>
  </g>
  <g id="bullet-char-template-9679" transform="scale(0.00048828125,-0.00048828125)">
   <path d="M 813,0 C 632,0 489,54 383,161 276,268 223,411 223,592 223,773 276,916 383,1023 489,1130 632,1184 813,1184 992,1184 1136,1130 1245,1023 1353,916 1407,772 1407,592 1407,412 1353,268 1245,161 1136,54 992,0 813,0 Z"/>
  </g>
  <g id="bullet-char-template-8226" transform="scale(0.00048828125,-0.00048828125)">
   <path d="M 346,457 C 273,457 209,483 155,535 101,586 74,649 74,723 74,796 101,859 155,911 209,963 273,989 346,989 419,989 480,963 531,910 582,859 608,796 608,723 608,648 583,586 532,535 482,483 420,457 346,457 Z"/>
  </g>
  <g id="bullet-char-template-8211" transform="scale(0.00048828125,-0.00048828125)">
   <path d="M -4,459 L 1135,459 1135,606 -4,606 -4,459 Z"/>
  </g>
  <g id="bullet-char-template-61548" transform="scale(0.00048828125,-0.00048828125)">
   <path d="M 173,740 C 173,903 231,1043 346,1159 462,1274 601,1332 765,1332 928,1332 1067,1274 1183,1159 1299,1043 1357,903 1357,740 1357,577 1299,437 1183,322 1067,206 928,148 765,148 601,148 462,206 346,322 231,437 173,577 173,740 Z"/>
  </g>
 </defs>
 <defs class="TextEmbeddedBitmaps"/>
 <g class="SlideGroup">
  <g>
   <g id="container-id1">
    <g id="id1" class="Slide" clip-path="url(#presentation_clip_path)">
     <g class="Page">
      <g class="com.sun.star.drawing.PolyPolygonShape">
       <g id="id3">
        <rect class="BoundingBox" stroke="none" fill="none" x="4992" y="7481" width="1603" height="1804"/>
        <path fill="rgb(153,102,51)" stroke="none" d="M 5843,7482 L 5765,7486 5689,7500 5616,7521 5547,7551 5481,7588 5419,7632 5361,7683 5309,7740 5261,7804 5218,7872 5181,7947 5150,8025 5126,8109 5108,8196 5097,8287 4993,8482 5093,8582 5193,8582 5193,8682 5193,8782 5193,8882 5261,8959 5309,9022 5361,9080 5419,9131 5481,9175 5547,9212 5616,9242 5689,9263 5765,9276 5843,9281 5921,9276 5997,9263 6070,9242 6139,9212 6205,9175 6267,9131 6325,9080 6377,9022 6425,8959 6468,8890 6505,8816 6536,8737 6560,8653 6578,8566 6589,8475 6593,8381 6589,8287 6578,8196 6560,8109 6536,8025 6505,7947 6468,7872 6425,7804 6377,7740 6325,7683 6267,7632 6205,7588 6139,7551 6070,7521 5997,7500 5921,7486 5843,7482 Z M 6593,7482 L 6593,7482 Z M 5092,9283 L 5092,9283 Z"/>
        <path fill="none" stroke="rgb(0,0,0)" d="M 5843,7482 L 5765,7486 5689,7500 5616,7521 5547,7551 5481,7588 5419,7632 5361,7683 5309,7740 5261,7804 5218,7872 5181,7947 5150,8025 5126,8109 5108,8196 5097,8287 4993,8482 5093,8582 5193,8582 5193,8682 5193,8782 5193,8882 5261,8959 5309,9022 5361,9080 5419,9131 5481,9175 5547,9212 5616,9242 5689,9263 5765,9276 5843,9281 5921,9276 5997,9263 6070,9242 6139,9212 6205,9175 6267,9131 6325,9080 6377,9022 6425,8959 6468,8890 6505,8816 6536,8737 6560,8653 6578,8566 6589,8475 6593,8381 6589,8287 6578,8196 6560,8109 6536,8025 6505,7947 6468,7872 6425,7804 6377,7740 6325,7683 6267,7632 6205,7588 6139,7551 6070,7521 5997,7500 5921,7486 5843,7482 Z"/>
        <path fill="none" stroke="rgb(0,0,0)" d="M 6593,7482 L 6593,7482 Z"/>
        <path fill="none" stroke="rgb(0,0,0)" d="M 5092,9283 L 5092,9283 Z"/>
       </g>
      </g>
      <g class="com.sun.star.drawing.CustomShape">
       <g id="id4">
        <rect class="BoundingBox" stroke="none" fill="none" x="5391" y="8081" width="204" height="304"/>
        <path fill="rgb(25,51,0)" stroke="none" d="M 5494,8082 C 5438,8082 5394,8147 5394,8232 5394,8317 5438,8382 5494,8382 5550,8382 5593,8317 5593,8232 5593,8147 5550,8082 5494,8082 Z M 5593,8082 L 5593,8082 Z M 5392,8383 L 5392,8383 Z"/>
        <path fill="none" stroke="rgb(0,0,0)" d="M 5494,8082 C 5438,8082 5394,8147 5394,8232 5394,8317 5438,8382 5494,8382 5550,8382 5593,8317 5593,8232 5593,8147 5550,8082 5494,8082 Z"/>
        <path fill="none" stroke="rgb(0,0,0)" d="M 5593,8082 L 5593,8082 Z"/>
        <path fill="none" stroke="rgb(0,0,0)" d="M 5392,8383 L 5392,8383 Z"/>
       </g>
      </g>
      <g class="com.sun.star.drawing.OpenBezierShape">
       <g id="id5">
        <rect class="BoundingBox" stroke="none" fill="none" x="5143" y="8532" width="1001" height="328"/>
        <path fill="none" stroke="rgb(0,0,0)" stroke-width="100" stroke-linejoin="round" d="M 5193,8782 C 5354,8817 5549,8817 5693,8782 5932,8723 6067,8617 6093,8582"/>
       </g>
      </g>
      <g class="com.sun.star.drawing.CustomShape">
       <g id="id6">
        <rect class="BoundingBox" stroke="none" fill="none" x="5291" y="9181" width="1104" height="1404"/>
        <path fill="rgb(153,0,0)" stroke="none" d="M 6210,9182 C 6302,9182 6393,9273 6393,9365 L 6393,10399 C 6393,10490 6302,10582 6210,10582 L 5476,10582 C 5384,10582 5292,10490 5292,10399 L 5292,9365 C 5292,9273 5384,9182 5476,9182 L 6210,9182 Z M 6393,9182 L 6393,9182 Z M 5292,10583 L 5292,10583 Z"/>
        <path fill="none" stroke="rgb(52,101,164)" d="M 6210,9182 C 6302,9182 6393,9273 6393,9365 L 6393,10399 C 6393,10490 6302,10582 6210,10582 L 5476,10582 C 5384,10582 5292,10490 5292,10399 L 5292,9365 C 5292,9273 5384,9182 5476,9182 L 6210,9182 Z"/>
        <path fill="none" stroke="rgb(52,101,164)" d="M 6393,9182 L 6393,9182 Z"/>
        <path fill="none" stroke="rgb(52,101,164)" d="M 5292,10583 L 5292,10583 Z"/>
       </g>
      </g>
      <g class="com.sun.star.drawing.CustomShape">
       <g id="id7">
        <rect class="BoundingBox" stroke="none" fill="none" x="4905" y="9304" width="1186" height="1079"/>
        <path fill="rgb(153,0,0)" stroke="none" d="M 5039,10218 L 4906,10056 5823,9305 6089,9630 5172,10381 5039,10218 Z"/>
        <path fill="none" stroke="rgb(0,0,0)" d="M 5039,10218 L 4906,10056 5823,9305 6089,9630 5172,10381 5039,10218 Z"/>
       </g>
      </g>
      <g class="com.sun.star.drawing.CustomShape">
       <g id="id8">
        <rect class="BoundingBox" stroke="none" fill="none" x="4987" y="10248" width="951" height="1021"/>
        <path fill="rgb(52,101,164)" stroke="none" d="M 5186,11114 L 4988,10960 5541,10249 5936,10556 5383,11267 5186,11114 Z"/>
        <path fill="none" stroke="rgb(0,0,0)" d="M 5186,11114 L 4988,10960 5541,10249 5936,10556 5383,11267 5186,11114 Z"/>
       </g>
      </g>
      <g class="com.sun.star.drawing.CustomShape">
       <g id="id9">
        <rect class="BoundingBox" stroke="none" fill="none" x="4749" y="10837" width="662" height="587"/>
        <path fill="rgb(51,51,51)" stroke="none" d="M 5384,11264 C 5397,11275 5398,11298 5387,11311 L 5299,11411 C 5288,11423 5265,11426 5252,11414 L 4776,10996 C 4763,10985 4762,10961 4772,10949 L 4861,10848 C 4872,10835 4895,10834 4908,10846 L 5384,11264 Z M 5409,11286 L 5409,11286 Z M 4750,10974 L 4750,10974 Z"/>
        <path fill="none" stroke="rgb(0,0,0)" d="M 5384,11264 C 5397,11275 5398,11298 5387,11311 L 5299,11411 C 5288,11423 5265,11426 5252,11414 L 4776,10996 C 4763,10985 4762,10961 4772,10949 L 4861,10848 C 4872,10835 4895,10834 4908,10846 L 5384,11264 Z"/>
        <path fill="none" stroke="rgb(0,0,0)" d="M 5409,11286 L 5409,11286 Z"/>
        <path fill="none" stroke="rgb(0,0,0)" d="M 4750,10974 L 4750,10974 Z"/>
       </g>
      </g>
      <g class="com.sun.star.drawing.CustomShape">
       <g id="id10">
        <rect class="BoundingBox" stroke="none" fill="none" x="5678" y="10441" width="547" height="927"/>
        <path fill="rgb(52,101,164)" stroke="none" d="M 5929,11353 L 5679,11341 5724,10442 6223,10467 6178,11366 5929,11353 Z"/>
        <path fill="none" stroke="rgb(0,0,0)" d="M 5929,11353 L 5679,11341 5724,10442 6223,10467 6178,11366 5929,11353 Z"/>
       </g>
      </g>
      <g class="com.sun.star.drawing.CustomShape">
       <g id="id11">
        <rect class="BoundingBox" stroke="none" fill="none" x="5453" y="11288" width="706" height="213"/>
        <path fill="rgb(51,51,51)" stroke="none" d="M 6124,11299 C 6141,11299 6157,11315 6157,11332 L 6155,11466 C 6155,11482 6138,11499 6121,11499 L 5488,11489 C 5471,11489 5454,11472 5454,11456 L 5456,11322 C 5456,11305 5474,11289 5491,11289 L 6124,11299 Z M 6157,11299 L 6157,11299 Z M 5454,11490 L 5454,11490 Z"/>
        <path fill="none" stroke="rgb(52,101,164)" d="M 6124,11299 C 6141,11299 6157,11315 6157,11332 L 6155,11466 C 6155,11482 6138,11499 6121,11499 L 5488,11489 C 5471,11489 5454,11472 5454,11456 L 5456,11322 C 5456,11305 5474,11289 5491,11289 L 6124,11299 Z"/>
        <path fill="none" stroke="rgb(52,101,164)" d="M 6157,11299 L 6157,11299 Z"/>
        <path fill="none" stroke="rgb(52,101,164)" d="M 5454,11490 L 5454,11490 Z"/>
       </g>
      </g>
      <g class="com.sun.star.drawing.PolyPolygonShape">
       <g id="id12">
        <rect class="BoundingBox" stroke="none" fill="none" x="4731" y="10073" width="439" height="335"/>
        <path fill="rgb(153,102,51)" stroke="none" d="M 4919,10406 L 5082,10364 5168,10333 4957,10074 4805,10123 4770,10170 4812,10185 4749,10236 4732,10283 4760,10315 4789,10354 4839,10376 4879,10386 4879,10386 4879,10386 4919,10406 Z"/>
        <path fill="none" stroke="rgb(0,0,0)" d="M 4919,10406 L 5082,10364 5168,10333 4957,10074 4805,10123 4770,10170 4812,10185 4749,10236 4732,10283 4760,10315 4789,10354 4839,10376 4879,10386 4879,10386 4879,10386 4919,10406 Z"/>
       </g>
      </g>
      <g class="com.sun.star.drawing.ClosedBezierShape">
       <g id="id13">
        <rect class="BoundingBox" stroke="none" fill="none" x="5204" y="7474" width="1459" height="1963"/>
        <path fill="rgb(28,28,28)" stroke="none" d="M 6410,9436 C 6400,9175 6668,8621 6661,8360 6657,8216 6605,7918 6604,7774 6471,7674 6337,7574 6204,7474 5971,7474 5737,7474 5504,7474 5404,7574 5304,7674 5204,7774 5504,7807 5804,7841 6104,7874 6281,8245 6233,9065 6410,9436 Z"/>
       </g>
      </g>
     </g>
    </g>
   </g>
  </g>
 </g>
</svg>