<?xml version="1.0" encoding="UTF-8"?>
<!DOCTYPE svg PUBLIC "-//W3C//DTD SVG 1.1//EN" "http://www.w3.org/Graphics/SVG/1.1/DTD/svg11.dtd">
<svg version="1.2" width="19.62mm" height="40.01mm" viewBox="9741 7484 1962 4001" preserveAspectRatio="xMidYMid" fill-rule="evenodd" stroke-width="28.222" stroke-linejoin="round" xmlns="http://www.w3.org/2000/svg" xmlns:ooo="http://xml.openoffice.org/svg/export" xmlns:xlink="http://www.w3.org/1999/xlink" xmlns:presentation="http://sun.com/xmlns/staroffice/presentation" xmlns:smil="http://www.w3.org/2001/SMIL20/" xmlns:anim="urn:oasis:names:tc:opendocument:xmlns:animation:1.0" xml:space="preserve">
 <defs class="ClipPathGroup">
  <clipPath id="presentation_clip_path" clipPathUnits="userSpaceOnUse">
   <rect x="9741" y="7484" width="1962" height="4001"/>
  </clipPath>
  <clipPath id="presentation_clip_path_shrink" clipPathUnits="userSpaceOnUse">
   <rect x="9742" y="7488" width="1959" height="3993"/>
  </clipPath>
 </defs>
 <defs class="TextShapeIndex">
  <g ooo:slide="id1" ooo:id-list="id3 id4 id5 id6 id7 id8 id9 id10 id11 id12 id13"/>
 </defs>
 <defs class="EmbeddedBulletChars">
  <g id="bullet-char-template-57356" transform="scale(0.00048828125,-0.00048828125)">
   <path d="M 580,1141 L 1163,571 580,0 -4,571 580,1141 Z"/>
  </g>
  <g id="bullet-char-template-57354" transform="scale(0.00048828125,-0.00048828125)">
   <path d="M 8,1128 L 1137,1128 1137,0 8,0 8,1128 Z"/>
  </g>
  <g id="bullet-char-template-10146" transform="scale(0.00048828125,-0.00048828125)">
   <path d="M 174,0 L 602,739 174,1481 1456,739 174,0 Z M 1358,739 L 309,1346 659,739 1358,739 Z"/>
  </g>
  <g id="bullet-char-template-10132" transform="scale(0.00048828125,-0.00048828125)">
   <path d="M 2015,739 L 1276,0 717,0 1260,543 174,543 174,936 1260,936 717,1481 1274,1481 2015,739 Z"/>
  </g>
  <g id="bullet-char-template-10007" transform="scale(0.00048828125,-0.00048828125)">
   <path d="M 0,-2 C -7,14 -16,27 -25,37 L 356,567 C 262,823 215,952 215,954 215,979 228,992 255,992 264,992 276,990 289,987 310,991 331,999 354,1012 L 381,999 492,748 772,1049 836,1024 860,1049 C 881,1039 901,1025 922,1006 886,937 835,863 770,784 769,783 710,716 594,584 L 774,223 C 774,196 753,168 711,139 L 727,119 C 717,90 699,76 672,76 641,76 570,178 457,381 L 164,-76 C 142,-110 111,-127 72,-127 30,-127 9,-110 8,-76 1,-67 -2,-52 -2,-32 -2,-23 -1,-13 0,-2 Z"/>
  </g>
  <g id="bullet-char-template-10004" transform="scale(0.00048828125,-0.00048828125)">
   <path d="M 285,-33 C 182,-33 111,30 74,156 52,228 41,333 41,471 41,549 55,616 82,672 116,743 169,778 240,778 293,778 328,747 346,684 L 369,508 C 377,444 397,411 428,410 L 1163,1116 C 1174,1127 1196,1133 1229,1133 1271,1133 1292,1118 1292,1087 L 1292,965 C 1292,929 1282,901 1262,881 L 442,47 C 390,-6 338,-33 285,-33 Z"/>
  </g>
  <g id="bullet-char-template-9679" transform="scale(0.00048828125,-0.00048828125)">
   <path d="M 813,0 C 632,0 489,54 383,161 276,268 223,411 223,592 223,773 276,916 383,1023 489,1130 632,1184 813,1184 992,1184 1136,1130 1245,1023 1353,916 1407,772 1407,592 1407,412 1353,268 1245,161 1136,54 992,0 813,0 Z"/>
  </g>
  <g id="bullet-char-template-8226" transform="scale(0.00048828125,-0.00048828125)">
   <path d="M 346,457 C 273,457 209,483 155,535 101,586 74,649 74,723 74,796 101,859 155,911 209,963 273,989 346,989 419,989 480,963 531,910 582,859 608,796 608,723 608,648 583,586 532,535 482,483 420,457 346,457 Z"/>
  </g>
  <g id="bullet-char-template-8211" transform="scale(0.00048828125,-0.00048828125)">
   <path d="M -4,459 L 1135,459 1135,606 -4,606 -4,459 Z"/>
  </g>
  <g id="bullet-char-template-61548" transform="scale(0.00048828125,-0.00048828125)">
   <path d="M 173,740 C 173,903 231,1043 346,1159 462,1274 601,1332 765,1332 928,1332 1067,1274 1183,1159 1299,1043 1357,903 1357,740 1357,577 1299,437 1183,322 1067,206 928,148 765,148 601,148 462,206 346,322 231,437 173,577 173,740 Z"/>
  </g>
 </defs>
 <defs class="TextEmbeddedBitmaps"/>
 <g class="SlideGroup">
  <g>
   <g id="container-id1">
    <g id="id1" class="Slide" clip-path="url(#presentation_clip_path)">
     <g class="Page">
      <g class="com.sun.star.drawing.PolyPolygonShape">
       <g id="id3">
        <rect class="BoundingBox" stroke="none" fill="none" x="10001" y="7483" width="1603" height="1804"/>
        <path fill="rgb(255,255,204)" stroke="none" d="M 10852,7484 L 10774,7488 10698,7502 10625,7523 10556,7553 10490,7590 10428,7634 10370,7685 10318,7742 10270,7806 10227,7874 10190,7949 10159,8027 10135,8111 10117,8198 10106,8289 10002,8484 10102,8584 10202,8584 10202,8684 10202,8784 10202,8884 10270,8961 10318,9024 10370,9082 10428,9133 10490,9177 10556,9214 10625,9244 10698,9265 10774,9278 10852,9283 10930,9278 11006,9265 11079,9244 11148,9214 11214,9177 11276,9133 11334,9082 11386,9024 11434,8961 11477,8892 11514,8818 11545,8739 11569,8655 11587,8568 11598,8477 11602,8383 11598,8289 11587,8198 11569,8111 11545,8027 11514,7949 11477,7874 11434,7806 11386,7742 11334,7685 11276,7634 11214,7590 11148,7553 11079,7523 11006,7502 10930,7488 10852,7484 Z M 11602,7484 L 11602,7484 Z M 10101,9285 L 10101,9285 Z"/>
        <path fill="none" stroke="rgb(0,0,0)" d="M 10852,7484 L 10774,7488 10698,7502 10625,7523 10556,7553 10490,7590 10428,7634 10370,7685 10318,7742 10270,7806 10227,7874 10190,7949 10159,8027 10135,8111 10117,8198 10106,8289 10002,8484 10102,8584 10202,8584 10202,8684 10202,8784 10202,8884 10270,8961 10318,9024 10370,9082 10428,9133 10490,9177 10556,9214 10625,9244 10698,9265 10774,9278 10852,9283 10930,9278 11006,9265 11079,9244 11148,9214 11214,9177 11276,9133 11334,9082 11386,9024 11434,8961 11477,8892 11514,8818 11545,8739 11569,8655 11587,8568 11598,8477 11602,8383 11598,8289 11587,8198 11569,8111 11545,8027 11514,7949 11477,7874 11434,7806 11386,7742 11334,7685 11276,7634 11214,7590 11148,7553 11079,7523 11006,7502 10930,7488 10852,7484 Z"/>
        <path fill="none" stroke="rgb(0,0,0)" d="M 11602,7484 L 11602,7484 Z"/>
        <path fill="none" stroke="rgb(0,0,0)" d="M 10101,9285 L 10101,9285 Z"/>
       </g>
      </g>
      <g class="com.sun.star.drawing.CustomShape">
       <g id="id4">
        <rect class="BoundingBox" stroke="none" fill="none" x="10400" y="8083" width="204" height="304"/>
        <path fill="rgb(114,159,207)" stroke="none" d="M 10503,8084 C 10447,8084 10403,8149 10403,8234 10403,8319 10447,8384 10503,8384 10559,8384 10602,8319 10602,8234 10602,8149 10559,8084 10503,8084 Z M 10602,8084 L 10602,8084 Z M 10401,8385 L 10401,8385 Z"/>
        <path fill="none" stroke="rgb(0,0,0)" d="M 10503,8084 C 10447,8084 10403,8149 10403,8234 10403,8319 10447,8384 10503,8384 10559,8384 10602,8319 10602,8234 10602,8149 10559,8084 10503,8084 Z"/>
        <path fill="none" stroke="rgb(0,0,0)" d="M 10602,8084 L 10602,8084 Z"/>
        <path fill="none" stroke="rgb(0,0,0)" d="M 10401,8385 L 10401,8385 Z"/>
       </g>
      </g>
      <g class="com.sun.star.drawing.OpenBezierShape">
       <g id="id5">
        <rect class="BoundingBox" stroke="none" fill="none" x="10151" y="8534" width="1002" height="328"/>
        <path fill="none" stroke="rgb(0,0,0)" stroke-width="100" stroke-linejoin="round" d="M 10202,8784 C 10363,8819 10558,8819 10702,8784 10941,8725 11076,8619 11102,8584"/>
       </g>
      </g>
      <g class="com.sun.star.drawing.PolyPolygonShape">
       <g id="id6">
        <rect class="BoundingBox" stroke="none" fill="none" x="10201" y="7483" width="1503" height="1403"/>
        <path fill="rgb(102,51,0)" stroke="none" d="M 11702,8884 L 11602,7784 11202,7484 10502,7484 10202,7784 11102,7884 11702,8884 Z"/>
        <path fill="none" stroke="rgb(0,0,0)" d="M 11702,8884 L 11602,7784 11202,7484 10502,7484 10202,7784 11102,7884 11702,8884 Z"/>
       </g>
      </g>
      <g class="com.sun.star.drawing.CustomShape">
       <g id="id7">
        <rect class="BoundingBox" stroke="none" fill="none" x="10300" y="9183" width="1104" height="1404"/>
        <path fill="rgb(0,120,38)" stroke="none" d="M 11219,9184 C 11311,9184 11402,9275 11402,9367 L 11402,10401 C 11402,10492 11311,10584 11219,10584 L 10485,10584 C 10393,10584 10301,10492 10301,10401 L 10301,9367 C 10301,9275 10393,9184 10485,9184 L 11219,9184 Z M 11402,9184 L 11402,9184 Z M 10301,10585 L 10301,10585 Z"/>
        <path fill="none" stroke="rgb(0,0,0)" d="M 11219,9184 C 11311,9184 11402,9275 11402,9367 L 11402,10401 C 11402,10492 11311,10584 11219,10584 L 10485,10584 C 10393,10584 10301,10492 10301,10401 L 10301,9367 C 10301,9275 10393,9184 10485,9184 L 11219,9184 Z"/>
        <path fill="none" stroke="rgb(0,0,0)" d="M 11402,9184 L 11402,9184 Z"/>
        <path fill="none" stroke="rgb(0,0,0)" d="M 10301,10585 L 10301,10585 Z"/>
       </g>
      </g>
      <g class="com.sun.star.drawing.CustomShape">
       <g id="id8">
        <rect class="BoundingBox" stroke="none" fill="none" x="9914" y="9306" width="1186" height="1079"/>
        <path fill="rgb(0,120,38)" stroke="none" d="M 10048,10220 L 9915,10058 10832,9307 11098,9632 10181,10383 10048,10220 Z"/>
        <path fill="none" stroke="rgb(0,0,0)" d="M 10048,10220 L 9915,10058 10832,9307 11098,9632 10181,10383 10048,10220 Z"/>
       </g>
      </g>
      <g class="com.sun.star.drawing.CustomShape">
       <g id="id9">
        <rect class="BoundingBox" stroke="none" fill="none" x="10482" y="10426" width="547" height="927"/>
        <path fill="rgb(52,101,164)" stroke="none" d="M 10733,11338 L 10483,11326 10528,10427 11027,10452 10982,11351 10733,11338 Z"/>
        <path fill="none" stroke="rgb(0,0,0)" d="M 10733,11338 L 10483,11326 10528,10427 11027,10452 10982,11351 10733,11338 Z"/>
       </g>
      </g>
      <g class="com.sun.star.drawing.CustomShape">
       <g id="id10">
        <rect class="BoundingBox" stroke="none" fill="none" x="10257" y="11273" width="706" height="213"/>
        <path fill="rgb(51,51,51)" stroke="none" d="M 10928,11284 C 10945,11284 10961,11300 10961,11317 L 10959,11451 C 10959,11467 10942,11484 10925,11484 L 10292,11474 C 10275,11474 10258,11457 10258,11441 L 10260,11307 C 10260,11290 10278,11274 10295,11274 L 10928,11284 Z M 10961,11284 L 10961,11284 Z M 10258,11475 L 10258,11475 Z"/>
        <path fill="none" stroke="rgb(0,0,0)" d="M 10928,11284 C 10945,11284 10961,11300 10961,11317 L 10959,11451 C 10959,11467 10942,11484 10925,11484 L 10292,11474 C 10275,11474 10258,11457 10258,11441 L 10260,11307 C 10260,11290 10278,11274 10295,11274 L 10928,11284 Z"/>
        <path fill="none" stroke="rgb(0,0,0)" d="M 10961,11284 L 10961,11284 Z"/>
        <path fill="none" stroke="rgb(0,0,0)" d="M 10258,11475 L 10258,11475 Z"/>
       </g>
      </g>
      <g class="com.sun.star.drawing.PolyPolygonShape">
       <g id="id11">
        <rect class="BoundingBox" stroke="none" fill="none" x="9740" y="10075" width="439" height="335"/>
        <path fill="rgb(255,255,204)" stroke="none" d="M 9928,10408 L 10091,10366 10177,10335 9966,10076 9814,10125 9779,10172 9821,10187 9758,10238 9741,10285 9769,10317 9798,10356 9848,10378 9888,10388 9888,10388 9888,10388 9928,10408 Z"/>
        <path fill="none" stroke="rgb(0,0,0)" d="M 9928,10408 L 10091,10366 10177,10335 9966,10076 9814,10125 9779,10172 9821,10187 9758,10238 9741,10285 9769,10317 9798,10356 9848,10378 9888,10388 9888,10388 9888,10388 9928,10408 Z"/>
       </g>
      </g>
      <g class="com.sun.star.drawing.CustomShape">
       <g id="id12">
        <rect class="BoundingBox" stroke="none" fill="none" x="10607" y="10326" width="617" height="961"/>
        <path fill="rgb(52,101,164)" stroke="none" d="M 10975,11252 L 10727,11285 10608,10393 11104,10327 11222,11219 10975,11252 Z"/>
        <path fill="none" stroke="rgb(0,0,0)" d="M 10975,11252 L 10727,11285 10608,10393 11104,10327 11222,11219 10975,11252 Z"/>
       </g>
      </g>
      <g class="com.sun.star.drawing.CustomShape">
       <g id="id13">
        <rect class="BoundingBox" stroke="none" fill="none" x="10560" y="11221" width="712" height="254"/>
        <path fill="rgb(51,51,51)" stroke="none" d="M 11225,11224 C 11242,11223 11259,11238 11260,11255 L 11270,11389 C 11271,11405 11256,11423 11239,11424 L 10607,11470 C 10590,11471 10572,11455 10571,11439 L 10561,11305 C 10560,11288 10576,11271 10593,11270 L 11225,11224 Z M 11258,11222 L 11258,11222 Z M 10573,11473 L 10573,11473 Z"/>
        <path fill="none" stroke="rgb(0,0,0)" d="M 11225,11224 C 11242,11223 11259,11238 11260,11255 L 11270,11389 C 11271,11405 11256,11423 11239,11424 L 10607,11470 C 10590,11471 10572,11455 10571,11439 L 10561,11305 C 10560,11288 10576,11271 10593,11270 L 11225,11224 Z"/>
        <path fill="none" stroke="rgb(0,0,0)" d="M 11258,11222 L 11258,11222 Z"/>
        <path fill="none" stroke="rgb(0,0,0)" d="M 10573,11473 L 10573,11473 Z"/>
       </g>
      </g>
     </g>
    </g>
   </g>
  </g>
 </g>
</svg>