<?xml version="1.0" encoding="UTF-8"?>
<!DOCTYPE svg PUBLIC "-//W3C//DTD SVG 1.1//EN" "http://www.w3.org/Graphics/SVG/1.1/DTD/svg11.dtd">
<svg version="1.2" width="18.84mm" height="40.71mm" viewBox="7237 1982 1884 4071" preserveAspectRatio="xMidYMid" fill-rule="evenodd" stroke-width="28.222" stroke-linejoin="round" xmlns="http://www.w3.org/2000/svg" xmlns:ooo="http://xml.openoffice.org/svg/export" xmlns:xlink="http://www.w3.org/1999/xlink" xmlns:presentation="http://sun.com/xmlns/staroffice/presentation" xmlns:smil="http://www.w3.org/2001/SMIL20/" xmlns:anim="urn:oasis:names:tc:opendocument:xmlns:animation:1.0" xml:space="preserve">
 <defs class="ClipPathGroup">
  <clipPath id="presentation_clip_path" clipPathUnits="userSpaceOnUse">
   <rect x="7237" y="1982" width="1884" height="4071"/>
  </clipPath>
  <clipPath id="presentation_clip_path_shrink" clipPathUnits="userSpaceOnUse">
   <rect x="7238" y="1986" width="1881" height="4063"/>
  </clipPath>
 </defs>
 <defs class="TextShapeIndex">
  <g ooo:slide="id1" ooo:id-list="id3 id4 id5 id6 id7 id8 id9 id10 id11 id12"/>
 </defs>
 <defs class="EmbeddedBulletChars">
  <g id="bullet-char-template-57356" transform="scale(0.00048828125,-0.00048828125)">
   <path d="M 580,1141 L 1163,571 580,0 -4,571 580,1141 Z"/>
  </g>
  <g id="bullet-char-template-57354" transform="scale(0.00048828125,-0.00048828125)">
   <path d="M 8,1128 L 1137,1128 1137,0 8,0 8,1128 Z"/>
  </g>
  <g id="bullet-char-template-10146" transform="scale(0.00048828125,-0.00048828125)">
   <path d="M 174,0 L 602,739 174,1481 1456,739 174,0 Z M 1358,739 L 309,1346 659,739 1358,739 Z"/>
  </g>
  <g id="bullet-char-template-10132" transform="scale(0.00048828125,-0.00048828125)">
   <path d="M 2015,739 L 1276,0 717,0 1260,543 174,543 174,936 1260,936 717,1481 1274,1481 2015,739 Z"/>
  </g>
  <g id="bullet-char-template-10007" transform="scale(0.00048828125,-0.00048828125)">
   <path d="M 0,-2 C -7,14 -16,27 -25,37 L 356,567 C 262,823 215,952 215,954 215,979 228,992 255,992 264,992 276,990 289,987 310,991 331,999 354,1012 L 381,999 492,748 772,1049 836,1024 860,1049 C 881,1039 901,1025 922,1006 886,937 835,863 770,784 769,783 710,716 594,584 L 774,223 C 774,196 753,168 711,139 L 727,119 C 717,90 699,76 672,76 641,76 570,178 457,381 L 164,-76 C 142,-110 111,-127 72,-127 30,-127 9,-110 8,-76 1,-67 -2,-52 -2,-32 -2,-23 -1,-13 0,-2 Z"/>
  </g>
  <g id="bullet-char-template-10004" transform="scale(0.00048828125,-0.00048828125)">
   <path d="M 285,-33 C 182,-33 111,30 74,156 52,228 41,333 41,471 41,549 55,616 82,672 116,743 169,778 240,778 293,778 328,747 346,684 L 369,508 C 377,444 397,411 428,410 L 1163,1116 C 1174,1127 1196,1133 1229,1133 1271,1133 1292,1118 1292,1087 L 1292,965 C 1292,929 1282,901 1262,881 L 442,47 C 390,-6 338,-33 285,-33 Z"/>
  </g>
  <g id="bullet-char-template-9679" transform="scale(0.00048828125,-0.00048828125)">
   <path d="M 813,0 C 632,0 489,54 383,161 276,268 223,411 223,592 223,773 276,916 383,1023 489,1130 632,1184 813,1184 992,1184 1136,1130 1245,1023 1353,916 1407,772 1407,592 1407,412 1353,268 1245,161 1136,54 992,0 813,0 Z"/>
  </g>
  <g id="bullet-char-template-8226" transform="scale(0.00048828125,-0.00048828125)">
   <path d="M 346,457 C 273,457 209,483 155,535 101,586 74,649 74,723 74,796 101,859 155,911 209,963 273,989 346,989 419,989 480,963 531,910 582,859 608,796 608,723 608,648 583,586 532,535 482,483 420,457 346,457 Z"/>
  </g>
  <g id="bullet-char-template-8211" transform="scale(0.00048828125,-0.00048828125)">
   <path d="M -4,459 L 1135,459 1135,606 -4,606 -4,459 Z"/>
  </g>
  <g id="bullet-char-template-61548" transform="scale(0.00048828125,-0.00048828125)">
   <path d="M 173,740 C 173,903 231,1043 346,1159 462,1274 601,1332 765,1332 928,1332 1067,1274 1183,1159 1299,1043 1357,903 1357,740 1357,577 1299,437 1183,322 1067,206 928,148 765,148 601,148 462,206 346,322 231,437 173,577 173,740 Z"/>
  </g>
 </defs>
 <defs class="TextEmbeddedBitmaps"/>
 <g class="SlideGroup">
  <g>
   <g id="container-id1">
    <g id="id1" class="Slide" clip-path="url(#presentation_clip_path)">
     <g class="Page">
      <g class="com.sun.star.drawing.PolyPolygonShape">
       <g id="id3">
        <rect class="BoundingBox" stroke="none" fill="none" x="7432" y="1981" width="1603" height="1804"/>
        <path fill="rgb(255,255,204)" stroke="none" d="M 8183,1982 L 8261,1986 8337,2000 8410,2021 8479,2051 8545,2088 8607,2132 8665,2183 8717,2240 8765,2304 8808,2372 8845,2447 8876,2525 8900,2609 8918,2696 8929,2787 9033,2982 8933,3082 8833,3082 8833,3182 8833,3282 8833,3382 8765,3459 8717,3522 8665,3580 8607,3631 8545,3675 8479,3712 8410,3742 8337,3763 8261,3776 8183,3781 8105,3776 8029,3763 7956,3742 7887,3712 7821,3675 7759,3631 7701,3580 7649,3522 7601,3459 7558,3390 7521,3316 7490,3237 7466,3153 7448,3066 7437,2975 7433,2881 7437,2787 7448,2696 7466,2609 7490,2525 7521,2447 7558,2372 7601,2304 7649,2240 7701,2183 7759,2132 7821,2088 7887,2051 7956,2021 8029,2000 8105,1986 8183,1982 Z M 7433,1982 L 7433,1982 Z M 8934,3783 L 8934,3783 Z"/>
        <path fill="none" stroke="rgb(0,0,0)" d="M 8183,1982 L 8261,1986 8337,2000 8410,2021 8479,2051 8545,2088 8607,2132 8665,2183 8717,2240 8765,2304 8808,2372 8845,2447 8876,2525 8900,2609 8918,2696 8929,2787 9033,2982 8933,3082 8833,3082 8833,3182 8833,3282 8833,3382 8765,3459 8717,3522 8665,3580 8607,3631 8545,3675 8479,3712 8410,3742 8337,3763 8261,3776 8183,3781 8105,3776 8029,3763 7956,3742 7887,3712 7821,3675 7759,3631 7701,3580 7649,3522 7601,3459 7558,3390 7521,3316 7490,3237 7466,3153 7448,3066 7437,2975 7433,2881 7437,2787 7448,2696 7466,2609 7490,2525 7521,2447 7558,2372 7601,2304 7649,2240 7701,2183 7759,2132 7821,2088 7887,2051 7956,2021 8029,2000 8105,1986 8183,1982 Z"/>
        <path fill="none" stroke="rgb(0,0,0)" d="M 7433,1982 L 7433,1982 Z"/>
        <path fill="none" stroke="rgb(0,0,0)" d="M 8934,3783 L 8934,3783 Z"/>
       </g>
      </g>
      <g class="com.sun.star.drawing.CustomShape">
       <g id="id4">
        <rect class="BoundingBox" stroke="none" fill="none" x="8432" y="2581" width="204" height="304"/>
        <path fill="rgb(114,159,207)" stroke="none" d="M 8532,2582 C 8588,2582 8632,2647 8632,2732 8632,2817 8588,2882 8532,2882 8476,2882 8433,2817 8433,2732 8433,2647 8476,2582 8532,2582 Z M 8433,2582 L 8433,2582 Z M 8634,2883 L 8634,2883 Z"/>
        <path fill="none" stroke="rgb(52,101,164)" d="M 8532,2582 C 8588,2582 8632,2647 8632,2732 8632,2817 8588,2882 8532,2882 8476,2882 8433,2817 8433,2732 8433,2647 8476,2582 8532,2582 Z"/>
        <path fill="none" stroke="rgb(52,101,164)" d="M 8433,2582 L 8433,2582 Z"/>
        <path fill="none" stroke="rgb(52,101,164)" d="M 8634,2883 L 8634,2883 Z"/>
       </g>
      </g>
      <g class="com.sun.star.drawing.OpenBezierShape">
       <g id="id5">
        <rect class="BoundingBox" stroke="none" fill="none" x="7883" y="3032" width="1001" height="328"/>
        <path fill="none" stroke="rgb(0,0,0)" stroke-width="100" stroke-linejoin="round" d="M 8833,3282 C 8672,3317 8477,3317 8333,3282 8094,3223 7959,3117 7933,3082"/>
       </g>
      </g>
      <g class="com.sun.star.drawing.PolyPolygonShape">
       <g id="id6">
        <rect class="BoundingBox" stroke="none" fill="none" x="7332" y="1981" width="1503" height="1403"/>
        <path fill="rgb(102,51,0)" stroke="none" d="M 7333,3382 L 7433,2282 7833,1982 8533,1982 8833,2282 7933,2382 7333,3382 Z"/>
        <path fill="none" stroke="rgb(52,101,164)" d="M 7333,3382 L 7433,2282 7833,1982 8533,1982 8833,2282 7933,2382 7333,3382 Z"/>
       </g>
      </g>
      <g class="com.sun.star.drawing.CustomShape">
       <g id="id7">
        <rect class="BoundingBox" stroke="none" fill="none" x="7632" y="3681" width="1104" height="1404"/>
        <path fill="rgb(0,120,38)" stroke="none" d="M 7816,3682 C 7724,3682 7633,3773 7633,3865 L 7633,4899 C 7633,4990 7724,5082 7816,5082 L 8550,5082 C 8642,5082 8734,4990 8734,4899 L 8734,3865 C 8734,3773 8642,3682 8550,3682 L 7816,3682 Z M 7633,3682 L 7633,3682 Z M 8734,5083 L 8734,5083 Z"/>
        <path fill="none" stroke="rgb(52,101,164)" d="M 7816,3682 C 7724,3682 7633,3773 7633,3865 L 7633,4899 C 7633,4990 7724,5082 7816,5082 L 8550,5082 C 8642,5082 8734,4990 8734,4899 L 8734,3865 C 8734,3773 8642,3682 8550,3682 L 7816,3682 Z"/>
        <path fill="none" stroke="rgb(52,101,164)" d="M 7633,3682 L 7633,3682 Z"/>
        <path fill="none" stroke="rgb(52,101,164)" d="M 8734,5083 L 8734,5083 Z"/>
       </g>
      </g>
      <g class="com.sun.star.drawing.CustomShape">
       <g id="id8">
        <rect class="BoundingBox" stroke="none" fill="none" x="7931" y="3803" width="1191" height="1081"/>
        <path fill="rgb(0,120,38)" stroke="none" d="M 8987,4719 L 8855,4882 7932,4129 8198,3804 9120,4557 8987,4719 Z"/>
        <path fill="none" stroke="rgb(0,0,0)" d="M 8987,4719 L 8855,4882 7932,4129 8198,3804 9120,4557 8987,4719 Z"/>
       </g>
      </g>
      <g class="com.sun.star.drawing.CustomShape">
       <g id="id9">
        <rect class="BoundingBox" stroke="none" fill="none" x="8007" y="4924" width="547" height="927"/>
        <path fill="rgb(52,101,164)" stroke="none" d="M 8302,5837 L 8052,5849 8008,4950 8507,4925 8552,5824 8302,5837 Z"/>
        <path fill="none" stroke="rgb(0,0,0)" d="M 8302,5837 L 8052,5849 8008,4950 8507,4925 8552,5824 8302,5837 Z"/>
       </g>
      </g>
      <g class="com.sun.star.drawing.CustomShape">
       <g id="id10">
        <rect class="BoundingBox" stroke="none" fill="none" x="8060" y="5771" width="706" height="213"/>
        <path fill="rgb(51,51,51)" stroke="none" d="M 8094,5782 C 8077,5782 8061,5798 8061,5815 L 8063,5949 C 8063,5965 8080,5982 8097,5982 L 8730,5972 C 8747,5972 8764,5955 8764,5939 L 8762,5805 C 8762,5788 8744,5772 8727,5772 L 8094,5782 Z M 8061,5782 L 8061,5782 Z M 8764,5973 L 8764,5973 Z"/>
        <path fill="none" stroke="rgb(0,0,0)" d="M 8094,5782 C 8077,5782 8061,5798 8061,5815 L 8063,5949 C 8063,5965 8080,5982 8097,5982 L 8730,5972 C 8747,5972 8764,5955 8764,5939 L 8762,5805 C 8762,5788 8744,5772 8727,5772 L 8094,5782 Z"/>
        <path fill="none" stroke="rgb(0,0,0)" d="M 8061,5782 L 8061,5782 Z"/>
        <path fill="none" stroke="rgb(0,0,0)" d="M 8764,5973 L 8764,5973 Z"/>
       </g>
      </g>
      <g class="com.sun.star.drawing.CustomShape">
       <g id="id11">
        <rect class="BoundingBox" stroke="none" fill="none" x="7376" y="4815" width="997" height="989"/>
        <path fill="rgb(52,101,164)" stroke="none" d="M 7551,5622 L 7377,5443 8023,4816 8371,5175 7725,5802 7551,5622 Z"/>
        <path fill="none" stroke="rgb(0,0,0)" d="M 7551,5622 L 7377,5443 8023,4816 8371,5175 7725,5802 7551,5622 Z"/>
       </g>
      </g>
      <g class="com.sun.star.drawing.CustomShape">
       <g id="id12">
        <rect class="BoundingBox" stroke="none" fill="none" x="7237" y="5430" width="626" height="624"/>
        <path fill="rgb(51,51,51)" stroke="none" d="M 7382,5454 C 7370,5442 7347,5443 7336,5456 L 7245,5555 C 7234,5567 7235,5590 7247,5601 L 7716,6028 C 7728,6040 7752,6039 7763,6027 L 7854,5928 C 7865,5915 7863,5892 7851,5881 L 7382,5454 Z M 7358,5431 L 7358,5431 Z M 7740,6052 L 7740,6052 Z"/>
        <path fill="none" stroke="rgb(0,0,0)" d="M 7382,5454 C 7370,5442 7347,5443 7336,5456 L 7245,5555 C 7234,5567 7235,5590 7247,5601 L 7716,6028 C 7728,6040 7752,6039 7763,6027 L 7854,5928 C 7865,5915 7863,5892 7851,5881 L 7382,5454 Z"/>
        <path fill="none" stroke="rgb(0,0,0)" d="M 7358,5431 L 7358,5431 Z"/>
        <path fill="none" stroke="rgb(0,0,0)" d="M 7740,6052 L 7740,6052 Z"/>
       </g>
      </g>
     </g>
    </g>
   </g>
  </g>
 </g>
</svg>